<svg width="18" height="23" viewBox="0 0 18 23" fill="none" xmlns="http://www.w3.org/2000/svg">
<path d="M15 8C15 6.4087 14.3679 4.88258 13.2426 3.75736C12.1174 2.63214 10.5913 2 9 2C7.4087 2 5.88258 2.63214 4.75736 3.75736C3.63214 4.88258 3 6.4087 3 8C3 15 0 17 0 17H18C18 17 15 15 15 8Z" fill="#E3E3E3"/>
<path d="M10.73 21C10.5542 21.3031 10.3019 21.5547 9.99825 21.7295C9.69463 21.9044 9.3504 21.9965 9.00002 21.9965C8.64964 21.9965 8.30541 21.9044 8.00179 21.7295C7.69818 21.5547 7.44583 21.3031 7.27002 21" fill="#E3E3E3"/>
<path d="M10.73 21C10.5542 21.3031 10.3019 21.5547 9.99825 21.7295C9.69463 21.9044 9.3504 21.9965 9.00002 21.9965C8.64964 21.9965 8.30541 21.9044 8.00179 21.7295C7.69818 21.5547 7.44583 21.3031 7.27002 21" stroke="#E3E3E3" stroke-width="2" stroke-linecap="round" stroke-linejoin="round"/>
<circle cx="13.972" cy="3.97196" r="3.97196" fill="#BB4430"/>
</svg>
