<svg width="24" height="24" viewBox="0 0 24 24" fill="none" xmlns="http://www.w3.org/2000/svg">
<path d="M13.7471 20.4429H20.9997" stroke="url(#paint0_linear_198_7910)" stroke-width="1.5" stroke-linecap="round" stroke-linejoin="round"/>
<path fill-rule="evenodd" clip-rule="evenodd" d="M12.78 3.79479C13.5557 2.86779 14.95 2.73186 15.8962 3.49173C15.9485 3.53296 17.6295 4.83879 17.6295 4.83879C18.669 5.46719 18.992 6.80311 18.3494 7.82259C18.3153 7.87718 8.81195 19.7645 8.81195 19.7645C8.49578 20.1589 8.01583 20.3918 7.50291 20.3973L3.86353 20.443L3.04353 16.9723C2.92866 16.4843 3.04353 15.9718 3.3597 15.5773L12.78 3.79479Z" stroke="url(#paint1_linear_198_7910)" stroke-width="1.5" stroke-linecap="round" stroke-linejoin="round"/>
<path d="M11.0205 6.00092L16.4728 10.188" stroke="url(#paint2_linear_198_7910)" stroke-width="1.5" stroke-linecap="round" stroke-linejoin="round"/>
<defs>
<linearGradient id="paint0_linear_198_7910" x1="17.3734" y1="19.8858" x2="17.3734" y2="21" gradientUnits="userSpaceOnUse">
<stop stop-color="#6DB935"/>
<stop offset="1" stop-color="#4DAA09"/>
</linearGradient>
<linearGradient id="paint1_linear_198_7910" x1="10.84" y1="3" x2="10.84" y2="20.443" gradientUnits="userSpaceOnUse">
<stop stop-color="#6DB935"/>
<stop offset="1" stop-color="#4DAA09"/>
</linearGradient>
<linearGradient id="paint2_linear_198_7910" x1="13.7466" y1="6.00092" x2="13.7466" y2="10.188" gradientUnits="userSpaceOnUse">
<stop stop-color="#6DB935"/>
<stop offset="1" stop-color="#4DAA09"/>
</linearGradient>
</defs>
</svg>
