<svg width="368" height="111" viewBox="0 0 368 111" fill="none" xmlns="http://www.w3.org/2000/svg">
<path opacity="0.1" fill-rule="evenodd" clip-rule="evenodd" d="M0 70.2913C0 70.2913 14.5063 67.3627 30.9991 74.3983C62.3673 87.7794 64.1568 63.2753 75.7885 51.4599C86.4302 40.6502 95.2435 47.2456 107.092 60.4651C115.831 70.215 128.567 86.5814 141.757 83.9466C153.813 81.5382 162.36 62.3427 179.072 57.461C192.317 53.5919 203.081 64.2213 218.332 60.4651C239.023 55.3695 248.265 25.3714 263.052 25.3714C281.303 25.3714 294.152 0 310.756 0C327.26 0 329.501 14.919 347.556 25.3714C361.359 33.3623 368 25.3714 368 25.3714V111H0V70.2913Z" fill="url(#paint0_linear_183_2362)"/>
<defs>
<linearGradient id="paint0_linear_183_2362" x1="184" y1="0" x2="184" y2="111" gradientUnits="userSpaceOnUse">
<stop stop-color="#6DB935"/>
<stop offset="1" stop-color="#4DAA09"/>
</linearGradient>
</defs>
</svg>
