<svg width="163" height="220" viewBox="0 0 163 220" fill="none" xmlns="http://www.w3.org/2000/svg">
<path d="M0 21.0963C0 13.7119 0 10.0197 1.4371 7.19924C2.70121 4.71828 4.71828 2.70121 7.19924 1.4371C10.0197 0 13.7119 0 21.0963 0H141.904C149.288 0 152.98 0 155.801 1.4371C158.282 2.70121 160.299 4.71828 161.563 7.19924C163 10.0197 163 13.7119 163 21.0963V194.885C163 202.27 163 205.962 161.563 208.782C160.299 211.263 158.282 213.28 155.801 214.544C152.98 215.981 149.288 215.981 141.904 215.981H21.0963C13.7119 215.981 10.0197 215.981 7.19924 214.544C4.71828 213.28 2.70121 211.263 1.4371 208.782C0 205.962 0 202.27 0 194.885V21.0963Z" fill="url(#paint0_linear_475_4976)"/>
<path d="M11.8199 27.21C10.7099 27.21 9.7599 26.985 8.9699 26.535C8.1799 26.08 7.5749 25.4425 7.1549 24.6225C6.7349 23.8025 6.5249 22.84 6.5249 21.735C6.5249 20.64 6.7574 19.685 7.2224 18.87C7.6924 18.05 8.3399 17.415 9.1649 16.965C9.9899 16.515 10.9399 16.29 12.0149 16.29C12.5699 16.29 13.0999 16.3475 13.6049 16.4625C14.1149 16.5775 14.5499 16.725 14.9099 16.905L14.6999 18.735C14.3249 18.56 13.9099 18.4175 13.4549 18.3075C13.0049 18.1925 12.5249 18.135 12.0149 18.135C11.2349 18.135 10.5949 18.2925 10.0949 18.6075C9.5949 18.9175 9.2249 19.3425 8.9849 19.8825C8.7449 20.4175 8.6249 21.025 8.6249 21.705C8.6249 22.42 8.7449 23.0525 8.9849 23.6025C9.2299 24.1525 9.5949 24.585 10.0799 24.9C10.5649 25.21 11.1699 25.365 11.8949 25.365C12.1149 25.365 12.3449 25.35 12.5849 25.32C12.8299 25.29 13.0799 25.25 13.3349 25.2V23.325H11.8949V21.735H15.2549V26.415C14.8899 26.63 14.4049 26.8175 13.7999 26.9775C13.1999 27.1325 12.5399 27.21 11.8199 27.21Z" fill="white"/>
<path d="M16.7283 27V19.5H18.4683L18.5133 20.295C18.7033 20.085 18.9708 19.875 19.3158 19.665C19.6608 19.455 20.0383 19.35 20.4483 19.35C20.5683 19.35 20.6783 19.36 20.7783 19.38L20.6433 21.21C20.5333 21.18 20.4233 21.16 20.3133 21.15C20.2083 21.14 20.1033 21.135 19.9983 21.135C19.6833 21.135 19.3958 21.2075 19.1358 21.3525C18.8758 21.4975 18.6933 21.675 18.5883 21.885V27H16.7283Z" fill="white"/>
<path d="M25.1626 27.15C24.2576 27.15 23.5026 26.97 22.8976 26.61C22.2976 26.245 21.8476 25.765 21.5476 25.17C21.2476 24.57 21.0976 23.915 21.0976 23.205C21.0976 22.52 21.2376 21.8875 21.5176 21.3075C21.8026 20.7275 22.2176 20.2625 22.7626 19.9125C23.3076 19.5575 23.9726 19.38 24.7576 19.38C25.4776 19.38 26.0776 19.5275 26.5576 19.8225C27.0376 20.1175 27.3976 20.5125 27.6376 21.0075C27.8776 21.4975 27.9976 22.04 27.9976 22.635C27.9976 22.8 27.9876 22.9675 27.9676 23.1375C27.9476 23.3025 27.9176 23.475 27.8776 23.655H23.0326C23.1026 24.12 23.2476 24.4975 23.4676 24.7875C23.6926 25.0725 23.9651 25.2825 24.2851 25.4175C24.6101 25.5525 24.9576 25.62 25.3276 25.62C25.7626 25.62 26.1676 25.565 26.5426 25.455C26.9176 25.34 27.2626 25.19 27.5776 25.005L27.6676 26.58C27.3826 26.73 27.0276 26.8625 26.6026 26.9775C26.1776 27.0925 25.6976 27.15 25.1626 27.15ZM23.0776 22.395H26.1076C26.1076 22.17 26.0651 21.945 25.9801 21.72C25.8951 21.49 25.7526 21.2975 25.5526 21.1425C25.3576 20.9875 25.0926 20.91 24.7576 20.91C24.2776 20.91 23.9001 21.05 23.6251 21.33C23.3501 21.61 23.1676 21.965 23.0776 22.395Z" fill="white"/>
<path d="M32.8824 27.15C31.9774 27.15 31.2224 26.97 30.6174 26.61C30.0174 26.245 29.5674 25.765 29.2674 25.17C28.9674 24.57 28.8174 23.915 28.8174 23.205C28.8174 22.52 28.9574 21.8875 29.2374 21.3075C29.5224 20.7275 29.9374 20.2625 30.4824 19.9125C31.0274 19.5575 31.6924 19.38 32.4774 19.38C33.1974 19.38 33.7974 19.5275 34.2774 19.8225C34.7574 20.1175 35.1174 20.5125 35.3574 21.0075C35.5974 21.4975 35.7174 22.04 35.7174 22.635C35.7174 22.8 35.7074 22.9675 35.6874 23.1375C35.6674 23.3025 35.6374 23.475 35.5974 23.655H30.7524C30.8224 24.12 30.9674 24.4975 31.1874 24.7875C31.4124 25.0725 31.6849 25.2825 32.0049 25.4175C32.3299 25.5525 32.6774 25.62 33.0474 25.62C33.4824 25.62 33.8874 25.565 34.2624 25.455C34.6374 25.34 34.9824 25.19 35.2974 25.005L35.3874 26.58C35.1024 26.73 34.7474 26.8625 34.3224 26.9775C33.8974 27.0925 33.4174 27.15 32.8824 27.15ZM30.7974 22.395H33.8274C33.8274 22.17 33.7849 21.945 33.6999 21.72C33.6149 21.49 33.4724 21.2975 33.2724 21.1425C33.0774 20.9875 32.8124 20.91 32.4774 20.91C31.9974 20.91 31.6199 21.05 31.3449 21.33C31.0699 21.61 30.8874 21.965 30.7974 22.395Z" fill="white"/>
<path d="M36.9871 27V19.5H38.7271L38.8021 20.895L38.3671 20.325C38.6521 20.085 38.9921 19.8675 39.3871 19.6725C39.7821 19.4775 40.2421 19.38 40.7671 19.38C41.7271 19.38 42.4396 19.7 42.9046 20.34C43.3696 20.975 43.6021 21.8 43.6021 22.815V27H41.7421V22.965C41.7421 22.265 41.6246 21.7475 41.3896 21.4125C41.1596 21.0775 40.7821 20.91 40.2571 20.91C39.8321 20.91 39.4846 21.015 39.2146 21.225C38.9446 21.43 38.7071 21.705 38.5021 22.05L38.8471 21.135V27H36.9871Z" fill="white"/>
<path d="M48.8785 27.15C47.9735 27.15 47.2185 26.97 46.6135 26.61C46.0135 26.245 45.5635 25.765 45.2635 25.17C44.9635 24.57 44.8135 23.915 44.8135 23.205C44.8135 22.52 44.9535 21.8875 45.2335 21.3075C45.5185 20.7275 45.9335 20.2625 46.4785 19.9125C47.0235 19.5575 47.6885 19.38 48.4735 19.38C49.1935 19.38 49.7935 19.5275 50.2735 19.8225C50.7535 20.1175 51.1135 20.5125 51.3535 21.0075C51.5935 21.4975 51.7135 22.04 51.7135 22.635C51.7135 22.8 51.7035 22.9675 51.6835 23.1375C51.6635 23.3025 51.6335 23.475 51.5935 23.655H46.7485C46.8185 24.12 46.9635 24.4975 47.1835 24.7875C47.4085 25.0725 47.681 25.2825 48.001 25.4175C48.326 25.5525 48.6735 25.62 49.0435 25.62C49.4785 25.62 49.8835 25.565 50.2585 25.455C50.6335 25.34 50.9785 25.19 51.2935 25.005L51.3835 26.58C51.0985 26.73 50.7435 26.8625 50.3185 26.9775C49.8935 27.0925 49.4135 27.15 48.8785 27.15ZM46.7935 22.395H49.8235C49.8235 22.17 49.781 21.945 49.696 21.72C49.611 21.49 49.4685 21.2975 49.2685 21.1425C49.0735 20.9875 48.8085 20.91 48.4735 20.91C47.9935 20.91 47.616 21.05 47.341 21.33C47.066 21.61 46.8835 21.965 46.7935 22.395Z" fill="white"/>
<path d="M52.9832 27V19.5H54.7232L54.7682 20.295C54.9582 20.085 55.2257 19.875 55.5707 19.665C55.9157 19.455 56.2932 19.35 56.7032 19.35C56.8232 19.35 56.9332 19.36 57.0332 19.38L56.8982 21.21C56.7882 21.18 56.6782 21.16 56.5682 21.15C56.4632 21.14 56.3582 21.135 56.2532 21.135C55.9382 21.135 55.6507 21.2075 55.3907 21.3525C55.1307 21.4975 54.9482 21.675 54.8432 21.885V27H52.9832Z" fill="white"/>
<path d="M65.2035 27.15C64.6335 27.15 64.141 27.0575 63.726 26.8725C63.311 26.6875 62.9235 26.435 62.5635 26.115L63.1185 25.725L63.0285 27H61.2885V15.75H63.1485V20.745L62.6985 20.46C63.0285 20.12 63.396 19.855 63.801 19.665C64.211 19.475 64.6785 19.38 65.2035 19.38C65.9385 19.38 66.556 19.5575 67.056 19.9125C67.556 20.2675 67.9335 20.74 68.1885 21.33C68.4485 21.92 68.5785 22.565 68.5785 23.265C68.5785 23.965 68.4485 24.61 68.1885 25.2C67.9335 25.79 67.556 26.2625 67.056 26.6175C66.556 26.9725 65.9385 27.15 65.2035 27.15ZM64.9335 25.62C65.3035 25.62 65.6185 25.52 65.8785 25.32C66.1385 25.12 66.336 24.845 66.471 24.495C66.606 24.14 66.6735 23.73 66.6735 23.265C66.6735 22.8 66.606 22.3925 66.471 22.0425C66.336 21.6875 66.1385 21.41 65.8785 21.21C65.6185 21.01 65.3035 20.91 64.9335 20.91C64.4985 20.91 64.1435 21.01 63.8685 21.21C63.5935 21.41 63.3885 21.6875 63.2535 22.0425C63.1235 22.3925 63.0585 22.8 63.0585 23.265C63.0585 23.73 63.1235 24.14 63.2535 24.495C63.3885 24.845 63.5935 25.12 63.8685 25.32C64.1435 25.52 64.4985 25.62 64.9335 25.62Z" fill="white"/>
<path d="M70.3117 30.63L71.9767 26.505L68.8567 19.5H70.9267L72.8467 24.33L74.7967 19.5H76.8667L72.1717 30.63H70.3117Z" fill="white"/>
<path d="M83.5825 27.15C83.1125 27.15 82.73 27.055 82.435 26.865C82.14 26.67 81.9225 26.4225 81.7825 26.1225C81.6425 25.8225 81.5725 25.51 81.5725 25.185V21.03H80.5075L80.6725 19.5H81.5725V17.85L83.4325 17.655V19.5H85.0825V21.03H83.4325V24.42C83.4325 24.8 83.455 25.075 83.5 25.245C83.545 25.41 83.6475 25.515 83.8075 25.56C83.9675 25.6 84.2225 25.62 84.5725 25.62H85.0825L84.9175 27.15H83.5825Z" fill="white"/>
<path d="M86.2787 27V15.75H88.1387V20.595L87.7187 20.265C88.0337 20.045 88.3762 19.8425 88.7462 19.6575C89.1162 19.4725 89.5587 19.38 90.0737 19.38C90.7337 19.38 91.2712 19.5275 91.6862 19.8225C92.1012 20.1125 92.4062 20.5175 92.6012 21.0375C92.7962 21.5525 92.8937 22.15 92.8937 22.83V27H91.0337V22.965C91.0337 22.265 90.9212 21.7475 90.6962 21.4125C90.4712 21.0775 90.1037 20.91 89.5937 20.91C89.1587 20.91 88.8012 21.0125 88.5212 21.2175C88.2462 21.4175 88.0037 21.69 87.7937 22.035L88.1387 21.03V27H86.2787Z" fill="white"/>
<path d="M98.1704 27.15C97.2654 27.15 96.5104 26.97 95.9054 26.61C95.3054 26.245 94.8555 25.765 94.5555 25.17C94.2555 24.57 94.1054 23.915 94.1054 23.205C94.1054 22.52 94.2454 21.8875 94.5254 21.3075C94.8104 20.7275 95.2254 20.2625 95.7704 19.9125C96.3154 19.5575 96.9804 19.38 97.7654 19.38C98.4854 19.38 99.0854 19.5275 99.5654 19.8225C100.045 20.1175 100.405 20.5125 100.645 21.0075C100.885 21.4975 101.005 22.04 101.005 22.635C101.005 22.8 100.995 22.9675 100.975 23.1375C100.955 23.3025 100.925 23.475 100.885 23.655H96.0405C96.1105 24.12 96.2554 24.4975 96.4754 24.7875C96.7004 25.0725 96.9729 25.2825 97.2929 25.4175C97.6179 25.5525 97.9654 25.62 98.3354 25.62C98.7704 25.62 99.1754 25.565 99.5504 25.455C99.9254 25.34 100.27 25.19 100.585 25.005L100.675 26.58C100.39 26.73 100.035 26.8625 99.6105 26.9775C99.1855 27.0925 98.7054 27.15 98.1704 27.15ZM96.0854 22.395H99.1154C99.1154 22.17 99.0729 21.945 98.9879 21.72C98.9029 21.49 98.7604 21.2975 98.5604 21.1425C98.3654 20.9875 98.1004 20.91 97.7654 20.91C97.2854 20.91 96.9079 21.05 96.6329 21.33C96.3579 21.61 96.1754 21.965 96.0854 22.395Z" fill="white"/>
<path d="M108.674 27.15C107.914 27.15 107.274 26.9725 106.754 26.6175C106.239 26.2625 105.849 25.79 105.584 25.2C105.324 24.61 105.194 23.965 105.194 23.265C105.194 22.565 105.324 21.92 105.584 21.33C105.849 20.74 106.239 20.2675 106.754 19.9125C107.274 19.5575 107.914 19.38 108.674 19.38C109.224 19.38 109.689 19.4725 110.069 19.6575C110.449 19.8375 110.784 20.07 111.074 20.355L110.624 20.745V15.75H112.484V27H110.729L110.639 25.725L111.179 26.115C110.829 26.435 110.467 26.6875 110.092 26.8725C109.717 27.0575 109.244 27.15 108.674 27.15ZM108.944 25.62C109.354 25.62 109.689 25.52 109.949 25.32C110.209 25.12 110.402 24.845 110.527 24.495C110.652 24.14 110.714 23.73 110.714 23.265C110.714 22.8 110.652 22.3925 110.527 22.0425C110.402 21.6875 110.209 21.41 109.949 21.21C109.689 21.01 109.354 20.91 108.944 20.91C108.554 20.91 108.222 21.01 107.947 21.21C107.672 21.41 107.462 21.6875 107.317 22.0425C107.172 22.3925 107.099 22.8 107.099 23.265C107.099 23.73 107.172 24.14 107.317 24.495C107.462 24.845 107.672 25.12 107.947 25.32C108.222 25.52 108.554 25.62 108.944 25.62Z" fill="white"/>
<path d="M115.834 27.15C115.434 27.15 115.069 27.0625 114.739 26.8875C114.409 26.7075 114.146 26.45 113.951 26.115C113.756 25.78 113.659 25.375 113.659 24.9C113.659 24.475 113.756 24.1125 113.951 23.8125C114.151 23.5075 114.411 23.255 114.731 23.055C115.056 22.85 115.406 22.69 115.781 22.575C116.161 22.455 116.534 22.3675 116.899 22.3125C117.269 22.2575 117.594 22.225 117.874 22.215C117.854 21.785 117.744 21.4725 117.544 21.2775C117.344 21.0825 117.004 20.985 116.524 20.985C116.189 20.985 115.861 21.0325 115.541 21.1275C115.226 21.2175 114.869 21.36 114.469 21.555L114.304 20.04C114.754 19.82 115.204 19.655 115.654 19.545C116.109 19.435 116.569 19.38 117.034 19.38C117.594 19.38 118.076 19.48 118.481 19.68C118.886 19.88 119.199 20.2025 119.419 20.6475C119.639 21.0875 119.749 21.67 119.749 22.395V24.42C119.749 24.795 119.766 25.0675 119.801 25.2375C119.836 25.4025 119.901 25.5075 119.996 25.5525C120.091 25.5975 120.229 25.62 120.409 25.62H120.649L120.484 27.15H119.809C119.529 27.15 119.279 27.1125 119.059 27.0375C118.844 26.9675 118.659 26.8675 118.504 26.7375C118.349 26.6075 118.224 26.455 118.129 26.28C117.884 26.555 117.551 26.77 117.131 26.925C116.716 27.075 116.284 27.15 115.834 27.15ZM116.614 25.725C116.779 25.725 116.984 25.6825 117.229 25.5975C117.474 25.5075 117.694 25.37 117.889 25.185V23.475C117.539 23.49 117.189 23.5475 116.839 23.6475C116.489 23.7475 116.196 23.895 115.961 24.09C115.726 24.285 115.609 24.53 115.609 24.825C115.609 25.13 115.689 25.3575 115.849 25.5075C116.009 25.6525 116.264 25.725 116.614 25.725Z" fill="white"/>
<path d="M121.977 30.63L123.642 26.505L120.522 19.5H122.592L124.512 24.33L126.462 19.5H128.532L123.837 30.63H121.977Z" fill="white"/>
<path d="M9.2476 182V173.03H6.2251V171.5H13.9051V173.03H10.8826V182H9.2476Z" fill="white"/>
<path d="M14.9196 182V170.75H16.4946V175.783L16.0446 175.625C16.3746 175.285 16.7321 175.005 17.1171 174.785C17.5071 174.56 17.9896 174.448 18.5646 174.448C19.2096 174.448 19.7421 174.593 20.1621 174.883C20.5821 175.168 20.8946 175.568 21.0996 176.083C21.3046 176.598 21.4071 177.195 21.4071 177.875V182H19.8396V178.025C19.8396 177.26 19.7071 176.698 19.4421 176.338C19.1771 175.973 18.7596 175.79 18.1896 175.79C17.7346 175.79 17.3446 175.905 17.0196 176.135C16.6996 176.365 16.4346 176.673 16.2246 177.058L16.4946 176.158V182H14.9196Z" fill="white"/>
<path d="M24.7956 182.15C24.3656 182.15 23.9831 182.06 23.6481 181.88C23.3131 181.695 23.0481 181.44 22.8531 181.115C22.6631 180.79 22.5681 180.408 22.5681 179.968C22.5681 179.548 22.6631 179.19 22.8531 178.895C23.0431 178.595 23.2956 178.345 23.6106 178.145C23.9256 177.945 24.2706 177.788 24.6456 177.673C25.0256 177.553 25.4106 177.465 25.8006 177.41C26.1906 177.355 26.5531 177.325 26.8881 177.32C26.8831 176.735 26.7581 176.34 26.5131 176.135C26.2681 175.925 25.8956 175.82 25.3956 175.82C25.0956 175.82 24.7881 175.865 24.4731 175.955C24.1581 176.04 23.8031 176.203 23.4081 176.443L23.2281 175.168C23.5881 174.948 23.9906 174.773 24.4356 174.643C24.8806 174.513 25.3406 174.448 25.8156 174.448C26.4106 174.448 26.9031 174.553 27.2931 174.763C27.6831 174.973 27.9756 175.32 28.1706 175.805C28.3656 176.29 28.4631 176.94 28.4631 177.755V179.48C28.4631 179.84 28.4781 180.123 28.5081 180.328C28.5431 180.528 28.6156 180.67 28.7256 180.755C28.8356 180.84 29.0031 180.883 29.2281 180.883H29.4081L29.2131 182.15H28.8681C28.4981 182.15 28.1981 182.11 27.9681 182.03C27.7431 181.95 27.5606 181.838 27.4206 181.693C27.2806 181.543 27.1631 181.365 27.0681 181.16C26.8031 181.46 26.4731 181.7 26.0781 181.88C25.6881 182.06 25.2606 182.15 24.7956 182.15ZM25.2756 180.92C25.5556 180.92 25.8431 180.85 26.1381 180.71C26.4381 180.57 26.6906 180.375 26.8956 180.125V178.385C26.3356 178.41 25.8531 178.478 25.4481 178.588C25.0481 178.693 24.7381 178.853 24.5181 179.068C24.3031 179.283 24.1956 179.558 24.1956 179.893C24.1956 180.253 24.2906 180.515 24.4806 180.68C24.6706 180.84 24.9356 180.92 25.2756 180.92Z" fill="white"/>
<path d="M30.4326 182V174.59H31.7751L31.9626 175.993L31.4826 175.618C31.8876 175.198 32.3101 174.898 32.7501 174.718C33.1901 174.538 33.6501 174.448 34.1301 174.448C35.1551 174.448 35.9001 174.763 36.3651 175.393C36.8301 176.018 37.0626 176.85 37.0626 177.89V182H35.4951V177.958C35.4951 177.213 35.3626 176.665 35.0976 176.315C34.8326 175.965 34.3851 175.79 33.7551 175.79C33.2901 175.79 32.8801 175.898 32.5251 176.113C32.1751 176.323 31.9201 176.638 31.7601 177.058L32.0001 176.195V182H30.4326Z" fill="white"/>
<path d="M38.7526 182V170.75H40.3201V177.8L42.8626 174.59H44.7076L41.8651 178.085L44.7751 182H42.9301L40.3201 178.438V182H38.7526Z" fill="white"/>
<path d="M47.8331 182.15C47.2481 182.15 46.7481 182.085 46.3331 181.955C45.9181 181.825 45.5756 181.688 45.3056 181.543L45.4706 180.118C45.7256 180.293 46.0481 180.463 46.4381 180.628C46.8331 180.788 47.2781 180.868 47.7731 180.868C48.2031 180.868 48.5306 180.798 48.7556 180.658C48.9856 180.513 49.1006 180.3 49.1006 180.02C49.1006 179.79 49.0331 179.605 48.8981 179.465C48.7631 179.32 48.5856 179.2 48.3656 179.105C48.1456 179.01 47.9131 178.923 47.6681 178.843C47.2831 178.718 46.9181 178.573 46.5731 178.408C46.2331 178.243 45.9556 178.023 45.7406 177.748C45.5306 177.468 45.4256 177.098 45.4256 176.638C45.4256 176.238 45.5256 175.87 45.7256 175.535C45.9256 175.2 46.2281 174.935 46.6331 174.74C47.0431 174.54 47.5631 174.44 48.1931 174.44C48.6731 174.44 49.0806 174.493 49.4156 174.598C49.7556 174.698 50.0581 174.818 50.3231 174.958L50.1581 176.345C49.8931 176.14 49.6056 175.97 49.2956 175.835C48.9906 175.695 48.6331 175.625 48.2231 175.625C47.8431 175.625 47.5406 175.7 47.3156 175.85C47.0906 175.995 46.9781 176.218 46.9781 176.518C46.9781 176.838 47.1106 177.07 47.3756 177.215C47.6406 177.36 48.0531 177.528 48.6131 177.718C48.8681 177.803 49.1181 177.905 49.3631 178.025C49.6081 178.14 49.8306 178.28 50.0306 178.445C50.2356 178.61 50.3981 178.815 50.5181 179.06C50.6381 179.305 50.6981 179.598 50.6981 179.938C50.6981 180.328 50.6031 180.69 50.4131 181.025C50.2281 181.36 49.9256 181.633 49.5056 181.843C49.0906 182.048 48.5331 182.15 47.8331 182.15Z" fill="white"/>
<path d="M55.8518 182V175.843H54.6668L54.8393 174.59H55.8518V172.91C55.8518 172.255 56.0343 171.733 56.3993 171.342C56.7693 170.947 57.3068 170.75 58.0118 170.75C58.2568 170.75 58.4768 170.765 58.6718 170.795C58.8668 170.825 59.0418 170.868 59.1968 170.923L59.0093 172.213C58.9093 172.178 58.8068 172.15 58.7018 172.13C58.5968 172.11 58.4718 172.1 58.3268 172.1C58.0468 172.1 57.8243 172.178 57.6593 172.333C57.4993 172.488 57.4193 172.745 57.4193 173.105V174.59H59.2568V175.843H57.4193V182H55.8518Z" fill="white"/>
<path d="M63.564 182.15C62.779 182.15 62.1065 181.978 61.5465 181.633C60.9915 181.283 60.5665 180.818 60.2715 180.238C59.9815 179.653 59.8365 179.008 59.8365 178.303C59.8365 177.593 59.9815 176.945 60.2715 176.36C60.5665 175.775 60.9915 175.31 61.5465 174.965C62.1065 174.615 62.779 174.44 63.564 174.44C64.354 174.44 65.0265 174.615 65.5815 174.965C66.1415 175.31 66.5665 175.775 66.8565 176.36C67.1515 176.945 67.299 177.593 67.299 178.303C67.299 179.008 67.1515 179.653 66.8565 180.238C66.5665 180.818 66.1415 181.283 65.5815 181.633C65.0265 181.978 64.354 182.15 63.564 182.15ZM63.564 180.808C64.254 180.808 64.7815 180.583 65.1465 180.133C65.5165 179.683 65.7015 179.073 65.7015 178.303C65.7015 177.528 65.5165 176.913 65.1465 176.458C64.7815 176.003 64.254 175.775 63.564 175.775C62.884 175.775 62.359 176.003 61.989 176.458C61.619 176.913 61.434 177.528 61.434 178.303C61.434 179.073 61.619 179.683 61.989 180.133C62.359 180.583 62.884 180.808 63.564 180.808Z" fill="white"/>
<path d="M68.6504 182V174.59H70.0304L70.1429 175.625C70.4429 175.265 70.7629 174.978 71.1029 174.763C71.4479 174.548 71.8204 174.44 72.2204 174.44C72.3404 174.44 72.4529 174.453 72.5579 174.478L72.4229 176.105C72.3379 176.085 72.2504 176.07 72.1604 176.06C72.0754 176.05 71.9854 176.045 71.8904 176.045C71.5304 176.045 71.2004 176.128 70.9004 176.293C70.6054 176.453 70.3954 176.635 70.2704 176.84V182H68.6504Z" fill="white"/>
<path d="M77.431 185.63L79.111 181.603L76.0285 174.59H77.7685L79.906 179.78L81.9235 174.59H83.6635L79.081 185.63H77.431Z" fill="white"/>
<path d="M87.7779 182.15C86.9929 182.15 86.3204 181.978 85.7604 181.633C85.2054 181.283 84.7804 180.818 84.4854 180.238C84.1954 179.653 84.0504 179.008 84.0504 178.303C84.0504 177.593 84.1954 176.945 84.4854 176.36C84.7804 175.775 85.2054 175.31 85.7604 174.965C86.3204 174.615 86.9929 174.44 87.7779 174.44C88.5679 174.44 89.2404 174.615 89.7954 174.965C90.3554 175.31 90.7804 175.775 91.0704 176.36C91.3654 176.945 91.5129 177.593 91.5129 178.303C91.5129 179.008 91.3654 179.653 91.0704 180.238C90.7804 180.818 90.3554 181.283 89.7954 181.633C89.2404 181.978 88.5679 182.15 87.7779 182.15ZM87.7779 180.808C88.4679 180.808 88.9954 180.583 89.3604 180.133C89.7304 179.683 89.9154 179.073 89.9154 178.303C89.9154 177.528 89.7304 176.913 89.3604 176.458C88.9954 176.003 88.4679 175.775 87.7779 175.775C87.0979 175.775 86.5729 176.003 86.2029 176.458C85.8329 176.913 85.6479 177.528 85.6479 178.303C85.6479 179.073 85.8329 179.683 86.2029 180.133C86.5729 180.583 87.0979 180.808 87.7779 180.808Z" fill="white"/>
<path d="M95.7068 182.15C95.0418 182.15 94.4943 182.018 94.0643 181.753C93.6343 181.488 93.3143 181.103 93.1043 180.598C92.8943 180.093 92.7893 179.48 92.7893 178.76V174.59H94.3568V178.543C94.3568 179.288 94.4818 179.85 94.7318 180.23C94.9868 180.61 95.4018 180.8 95.9768 180.8C96.3918 180.8 96.7593 180.7 97.0793 180.5C97.4043 180.3 97.6443 179.995 97.7993 179.585L97.5443 180.41V174.59H99.1118V182H97.6868L97.4918 180.62L97.8668 180.98C97.6518 181.34 97.3593 181.625 96.9893 181.835C96.6243 182.045 96.1968 182.15 95.7068 182.15Z" fill="white"/>
<path d="M100.906 182V174.59H102.286L102.399 175.625C102.699 175.265 103.019 174.978 103.359 174.763C103.704 174.548 104.076 174.44 104.476 174.44C104.596 174.44 104.709 174.453 104.814 174.478L104.679 176.105C104.594 176.085 104.506 176.07 104.416 176.06C104.331 176.05 104.241 176.045 104.146 176.045C103.786 176.045 103.456 176.128 103.156 176.293C102.861 176.453 102.651 176.635 102.526 176.84V182H100.906Z" fill="white"/>
<path d="M10.3126 200.15C9.4726 200.15 8.7651 199.977 8.1901 199.632C7.6201 199.287 7.1901 198.828 6.9001 198.253C6.6101 197.673 6.4651 197.03 6.4651 196.325C6.4651 195.6 6.6076 194.945 6.8926 194.36C7.1776 193.77 7.6101 193.303 8.1901 192.958C8.7701 192.613 9.5076 192.44 10.4026 192.44C10.8026 192.44 11.1726 192.483 11.5126 192.568C11.8526 192.648 12.1526 192.755 12.4126 192.89L12.2251 194.21C11.9701 194.085 11.6926 193.985 11.3926 193.91C11.0926 193.83 10.7826 193.79 10.4626 193.79C9.6876 193.79 9.0926 194.015 8.6776 194.465C8.2676 194.915 8.0626 195.523 8.0626 196.288C8.0626 197.033 8.2651 197.64 8.6701 198.11C9.0751 198.58 9.6651 198.815 10.4401 198.815C10.7601 198.815 11.0701 198.775 11.3701 198.695C11.6751 198.61 11.9651 198.495 12.2401 198.35L12.4126 199.64C12.1876 199.78 11.8851 199.9 11.5051 200C11.1301 200.1 10.7326 200.15 10.3126 200.15Z" fill="white"/>
<path d="M16.9087 200.15C16.1237 200.15 15.4512 199.977 14.8912 199.632C14.3362 199.282 13.9112 198.817 13.6162 198.237C13.3262 197.652 13.1812 197.008 13.1812 196.303C13.1812 195.593 13.3262 194.945 13.6162 194.36C13.9112 193.775 14.3362 193.31 14.8912 192.965C15.4512 192.615 16.1237 192.44 16.9087 192.44C17.6987 192.44 18.3712 192.615 18.9262 192.965C19.4862 193.31 19.9112 193.775 20.2012 194.36C20.4962 194.945 20.6437 195.593 20.6437 196.303C20.6437 197.008 20.4962 197.652 20.2012 198.237C19.9112 198.817 19.4862 199.282 18.9262 199.632C18.3712 199.977 17.6987 200.15 16.9087 200.15ZM16.9087 198.808C17.5987 198.808 18.1262 198.582 18.4912 198.132C18.8612 197.682 19.0462 197.073 19.0462 196.303C19.0462 195.528 18.8612 194.913 18.4912 194.458C18.1262 194.003 17.5987 193.775 16.9087 193.775C16.2287 193.775 15.7037 194.003 15.3337 194.458C14.9637 194.913 14.7787 195.528 14.7787 196.303C14.7787 197.073 14.9637 197.682 15.3337 198.132C15.7037 198.582 16.2287 198.808 16.9087 198.808Z" fill="white"/>
<path d="M21.9951 200V192.59H23.3376L23.5251 193.993L23.0451 193.618C23.4501 193.198 23.8726 192.897 24.3126 192.717C24.7526 192.537 25.2126 192.448 25.6926 192.448C26.7176 192.448 27.4626 192.763 27.9276 193.393C28.3926 194.018 28.6251 194.85 28.6251 195.89V200H27.0576V195.958C27.0576 195.213 26.9251 194.665 26.6601 194.315C26.3951 193.965 25.9476 193.79 25.3176 193.79C24.8526 193.79 24.4426 193.897 24.0876 194.112C23.7376 194.322 23.4826 194.637 23.3226 195.057L23.5626 194.195V200H21.9951Z" fill="white"/>
<path d="M32.7251 200.15C32.2601 200.15 31.8826 200.06 31.5926 199.88C31.3076 199.7 31.0976 199.47 30.9626 199.19C30.8326 198.91 30.7676 198.615 30.7676 198.305V193.842H29.5901L29.7326 192.59H30.7676V190.842L32.3351 190.678V192.59H34.1501V193.842H32.3351V197.51C32.3351 197.94 32.3601 198.253 32.4101 198.448C32.4601 198.638 32.5826 198.758 32.7776 198.808C32.9726 198.858 33.2826 198.882 33.7076 198.882H34.1276L33.9926 200.15H32.7251Z" fill="white"/>
<path d="M35.3252 200V192.59H36.7052L36.8177 193.625C37.1177 193.265 37.4377 192.978 37.7777 192.763C38.1227 192.548 38.4952 192.44 38.8952 192.44C39.0152 192.44 39.1277 192.453 39.2327 192.478L39.0977 194.105C39.0127 194.085 38.9252 194.07 38.8352 194.06C38.7502 194.05 38.6602 194.045 38.5652 194.045C38.2052 194.045 37.8752 194.127 37.5752 194.292C37.2802 194.452 37.0702 194.635 36.9452 194.84V200H35.3252Z" fill="white"/>
<path d="M40.1592 200V192.59H41.7267V200H40.1592ZM40.1592 191.15V189.5H41.7267V191.15H40.1592Z" fill="white"/>
<path d="M47.2562 200.15C46.7162 200.15 46.2187 200.04 45.7637 199.82C45.3087 199.6 44.9512 199.283 44.6912 198.868L45.1187 198.56L44.9312 200H43.4987V188.75H45.0662V193.94L44.7137 193.7C44.9987 193.325 45.3612 193.022 45.8012 192.792C46.2412 192.562 46.7262 192.448 47.2562 192.448C47.9612 192.448 48.5612 192.627 49.0562 192.987C49.5562 193.342 49.9362 193.812 50.1962 194.397C50.4612 194.982 50.5937 195.618 50.5937 196.303C50.5937 197.008 50.4537 197.652 50.1737 198.237C49.8937 198.817 49.5037 199.282 49.0037 199.632C48.5037 199.977 47.9212 200.15 47.2562 200.15ZM47.0462 198.808C47.4512 198.808 47.7987 198.698 48.0887 198.478C48.3787 198.258 48.6012 197.957 48.7562 197.577C48.9112 197.197 48.9887 196.773 48.9887 196.303C48.9887 195.818 48.9112 195.388 48.7562 195.013C48.6012 194.633 48.3787 194.335 48.0887 194.12C47.7987 193.9 47.4512 193.79 47.0462 193.79C46.6362 193.79 46.2762 193.888 45.9662 194.083C45.6612 194.278 45.4212 194.562 45.2462 194.938C45.0712 195.308 44.9837 195.763 44.9837 196.303C44.9837 196.853 45.0712 197.312 45.2462 197.682C45.4212 198.052 45.6612 198.332 45.9662 198.522C46.2762 198.712 46.6362 198.808 47.0462 198.808Z" fill="white"/>
<path d="M54.779 200.15C54.114 200.15 53.5665 200.018 53.1365 199.753C52.7065 199.488 52.3865 199.102 52.1765 198.597C51.9665 198.092 51.8615 197.48 51.8615 196.76V192.59H53.429V196.542C53.429 197.287 53.554 197.85 53.804 198.23C54.059 198.61 54.474 198.8 55.049 198.8C55.464 198.8 55.8315 198.7 56.1515 198.5C56.4765 198.3 56.7165 197.995 56.8715 197.585L56.6165 198.41V192.59H58.184V200H56.759L56.564 198.62L56.939 198.98C56.724 199.34 56.4315 199.625 56.0615 199.835C55.6965 200.045 55.269 200.15 54.779 200.15Z" fill="white"/>
<path d="M62.476 200.15C62.011 200.15 61.6335 200.06 61.3435 199.88C61.0585 199.7 60.8485 199.47 60.7135 199.19C60.5835 198.91 60.5185 198.615 60.5185 198.305V193.842H59.341L59.4835 192.59H60.5185V190.842L62.086 190.678V192.59H63.901V193.842H62.086V197.51C62.086 197.94 62.111 198.253 62.161 198.448C62.211 198.638 62.3335 198.758 62.5285 198.808C62.7235 198.858 63.0335 198.882 63.4585 198.882H63.8785L63.7435 200.15H62.476Z" fill="white"/>
<path d="M65.0762 200V192.59H66.6437V200H65.0762ZM65.0762 191.15V189.5H66.6437V191.15H65.0762Z" fill="white"/>
<path d="M71.7232 200.15C70.9382 200.15 70.2657 199.977 69.7057 199.632C69.1507 199.282 68.7257 198.817 68.4307 198.237C68.1407 197.652 67.9957 197.008 67.9957 196.303C67.9957 195.593 68.1407 194.945 68.4307 194.36C68.7257 193.775 69.1507 193.31 69.7057 192.965C70.2657 192.615 70.9382 192.44 71.7232 192.44C72.5132 192.44 73.1857 192.615 73.7407 192.965C74.3007 193.31 74.7257 193.775 75.0157 194.36C75.3107 194.945 75.4582 195.593 75.4582 196.303C75.4582 197.008 75.3107 197.652 75.0157 198.237C74.7257 198.817 74.3007 199.282 73.7407 199.632C73.1857 199.977 72.5132 200.15 71.7232 200.15ZM71.7232 198.808C72.4132 198.808 72.9407 198.582 73.3057 198.132C73.6757 197.682 73.8607 197.073 73.8607 196.303C73.8607 195.528 73.6757 194.913 73.3057 194.458C72.9407 194.003 72.4132 193.775 71.7232 193.775C71.0432 193.775 70.5182 194.003 70.1482 194.458C69.7782 194.913 69.5932 195.528 69.5932 196.303C69.5932 197.073 69.7782 197.682 70.1482 198.132C70.5182 198.582 71.0432 198.808 71.7232 198.808Z" fill="white"/>
<path d="M76.8096 200V192.59H78.1521L78.3396 193.993L77.8596 193.618C78.2646 193.198 78.6871 192.897 79.1271 192.717C79.5671 192.537 80.0271 192.448 80.5071 192.448C81.5321 192.448 82.2771 192.763 82.7421 193.393C83.2071 194.018 83.4396 194.85 83.4396 195.89V200H81.8721V195.958C81.8721 195.213 81.7396 194.665 81.4746 194.315C81.2096 193.965 80.7621 193.79 80.1321 193.79C79.6671 193.79 79.2571 193.897 78.9021 194.112C78.5521 194.322 78.2971 194.637 78.1371 195.057L78.3771 194.195V200H76.8096Z" fill="white"/>
<path d="M85.3338 197.195V196.79L85.0863 189.5H86.9463L86.7063 196.79V197.195H85.3338ZM85.1388 200V198.222H86.9013V200H85.1388Z" fill="white"/>
<path d="M23.5581 126L24.6981 117.6H25.7961L27.9321 121.62L30.0561 117.6H31.1601L32.2941 126H30.9261L30.0981 119.376L30.4461 119.442L27.9441 124.104L25.4061 119.448L25.7541 119.382L24.9261 126H23.5581Z" fill="white"/>
<path d="M34.8373 126.12C34.4933 126.12 34.1873 126.048 33.9193 125.904C33.6513 125.756 33.4393 125.552 33.2833 125.292C33.1313 125.032 33.0553 124.726 33.0553 124.374C33.0553 124.038 33.1313 123.752 33.2833 123.516C33.4353 123.276 33.6373 123.076 33.8893 122.916C34.1413 122.756 34.4173 122.63 34.7173 122.538C35.0213 122.442 35.3293 122.372 35.6413 122.328C35.9533 122.284 36.2433 122.26 36.5113 122.256C36.5073 121.788 36.4073 121.472 36.2113 121.308C36.0153 121.14 35.7173 121.056 35.3173 121.056C35.0773 121.056 34.8313 121.092 34.5793 121.164C34.3273 121.232 34.0433 121.362 33.7273 121.554L33.5833 120.534C33.8713 120.358 34.1933 120.218 34.5493 120.114C34.9053 120.01 35.2733 119.958 35.6533 119.958C36.1293 119.958 36.5233 120.042 36.8353 120.21C37.1473 120.378 37.3813 120.656 37.5373 121.044C37.6933 121.432 37.7713 121.952 37.7713 122.604V123.984C37.7713 124.272 37.7833 124.498 37.8073 124.662C37.8353 124.822 37.8933 124.936 37.9813 125.004C38.0693 125.072 38.2033 125.106 38.3833 125.106H38.5273L38.3713 126.12H38.0953C37.7993 126.12 37.5593 126.088 37.3753 126.024C37.1953 125.96 37.0493 125.87 36.9373 125.754C36.8253 125.634 36.7313 125.492 36.6553 125.328C36.4433 125.568 36.1793 125.76 35.8633 125.904C35.5513 126.048 35.2093 126.12 34.8373 126.12ZM35.2213 125.136C35.4453 125.136 35.6753 125.08 35.9113 124.968C36.1513 124.856 36.3533 124.7 36.5173 124.5V123.108C36.0693 123.128 35.6833 123.182 35.3593 123.27C35.0393 123.354 34.7913 123.482 34.6153 123.654C34.4433 123.826 34.3573 124.046 34.3573 124.314C34.3573 124.602 34.4333 124.812 34.5853 124.944C34.7373 125.072 34.9493 125.136 35.2213 125.136Z" fill="white"/>
<path d="M41.7169 126.12C41.1729 126.12 40.6969 125.982 40.2889 125.706C39.8809 125.426 39.5629 125.054 39.3349 124.59C39.1109 124.126 38.9989 123.612 38.9989 123.048C38.9989 122.5 39.1049 121.992 39.3169 121.524C39.5329 121.052 39.8429 120.674 40.2469 120.39C40.6549 120.102 41.1449 119.958 41.7169 119.958C42.1289 119.958 42.5049 120.038 42.8449 120.198C43.1849 120.358 43.4709 120.6 43.7029 120.924L43.4149 121.146V117H44.6689V126H43.5229L43.3729 124.848L43.7149 125.094C43.4989 125.426 43.2209 125.68 42.8809 125.856C42.5409 126.032 42.1529 126.12 41.7169 126.12ZM41.9209 125.046C42.2169 125.046 42.4849 124.972 42.7249 124.824C42.9689 124.676 43.1609 124.454 43.3009 124.158C43.4449 123.862 43.5169 123.492 43.5169 123.048C43.5169 122.624 43.4449 122.262 43.3009 121.962C43.1609 121.658 42.9689 121.428 42.7249 121.272C42.4849 121.112 42.2169 121.032 41.9209 121.032C41.5769 121.032 41.2809 121.12 41.0329 121.296C40.7889 121.468 40.6009 121.706 40.4689 122.01C40.3409 122.31 40.2769 122.656 40.2769 123.048C40.2769 123.424 40.3409 123.764 40.4689 124.068C40.6009 124.368 40.7889 124.606 41.0329 124.782C41.2809 124.958 41.5769 125.046 41.9209 125.046Z" fill="white"/>
<path d="M48.9412 126.12C48.2332 126.12 47.6412 125.978 47.1652 125.694C46.6892 125.406 46.3292 125.026 46.0852 124.554C45.8452 124.078 45.7252 123.558 45.7252 122.994C45.7252 122.446 45.8372 121.942 46.0612 121.482C46.2892 121.022 46.6192 120.654 47.0512 120.378C47.4872 120.098 48.0132 119.958 48.6292 119.958C49.1532 119.958 49.6072 120.064 49.9912 120.276C50.3752 120.488 50.6692 120.784 50.8732 121.164C51.0812 121.544 51.1852 121.988 51.1852 122.496C51.1852 122.6 51.1792 122.708 51.1672 122.82C51.1592 122.932 51.1432 123.05 51.1192 123.174H47.0212C47.0732 123.642 47.1972 124.014 47.3932 124.29C47.5892 124.562 47.8332 124.756 48.1252 124.872C48.4172 124.988 48.7332 125.046 49.0732 125.046C49.3772 125.046 49.6772 125.012 49.9732 124.944C50.2692 124.872 50.5472 124.77 50.8072 124.638L50.9212 125.664C50.6932 125.772 50.4132 125.876 50.0812 125.976C49.7492 126.072 49.3692 126.12 48.9412 126.12ZM47.0932 122.316H49.9012C49.9012 122.08 49.8572 121.866 49.7692 121.674C49.6812 121.478 49.5412 121.322 49.3492 121.206C49.1612 121.09 48.9172 121.032 48.6172 121.032C48.1772 121.032 47.8352 121.148 47.5912 121.38C47.3512 121.612 47.1852 121.924 47.0932 122.316Z" fill="white"/>
<path d="M57.3206 129.012C56.7766 129.012 56.2946 128.944 55.8746 128.808C55.4546 128.672 55.1246 128.474 54.8846 128.214C54.6486 127.958 54.5306 127.644 54.5306 127.272C54.5306 126.96 54.6186 126.688 54.7946 126.456C54.9706 126.228 55.2166 126.036 55.5326 125.88C55.3566 125.784 55.2186 125.67 55.1186 125.538C55.0226 125.402 54.9746 125.252 54.9746 125.088C54.9746 124.904 55.0286 124.74 55.1366 124.596C55.2486 124.452 55.4146 124.334 55.6346 124.242C55.3146 124.034 55.0706 123.758 54.9026 123.414C54.7346 123.07 54.6506 122.692 54.6506 122.28C54.6506 121.852 54.7446 121.462 54.9326 121.11C55.1246 120.754 55.4006 120.472 55.7606 120.264C56.1246 120.056 56.5646 119.952 57.0806 119.952C57.3526 119.952 57.6066 119.99 57.8426 120.066C58.0826 120.138 58.2986 120.24 58.4906 120.372C58.6466 120.284 58.8426 120.21 59.0786 120.15C59.3186 120.086 59.5846 120.054 59.8766 120.054C59.9166 120.054 59.9546 120.054 59.9906 120.054C60.0266 120.054 60.0626 120.054 60.0986 120.054L59.9786 120.864C59.9146 120.864 59.8506 120.864 59.7866 120.864C59.7226 120.864 59.6586 120.864 59.5946 120.864C59.5546 120.864 59.4806 120.868 59.3726 120.876C59.2646 120.884 59.1606 120.898 59.0606 120.918C59.2086 121.11 59.3206 121.322 59.3966 121.554C59.4726 121.786 59.5106 122.028 59.5106 122.28C59.5106 122.724 59.4146 123.124 59.2226 123.48C59.0346 123.836 58.7586 124.12 58.3946 124.332C58.0346 124.544 57.5966 124.65 57.0806 124.65C56.9526 124.65 56.8266 124.642 56.7026 124.626C56.5826 124.606 56.4666 124.582 56.3546 124.554C56.2106 124.602 56.1386 124.688 56.1386 124.812C56.1386 124.908 56.1966 124.988 56.3126 125.052C56.4286 125.112 56.6126 125.162 56.8646 125.202L58.2086 125.4C58.8486 125.496 59.3446 125.68 59.6966 125.952C60.0526 126.224 60.2306 126.612 60.2306 127.116C60.2306 127.52 60.1126 127.862 59.8766 128.142C59.6446 128.426 59.3106 128.642 58.8746 128.79C58.4386 128.938 57.9206 129.012 57.3206 129.012ZM57.4046 127.98C57.9366 127.98 58.3426 127.912 58.6226 127.776C58.9026 127.644 59.0426 127.444 59.0426 127.176C59.0426 126.952 58.9506 126.782 58.7666 126.666C58.5826 126.55 58.3066 126.46 57.9386 126.396L56.4146 126.156C56.2066 126.244 56.0266 126.362 55.8746 126.51C55.7266 126.662 55.6526 126.846 55.6526 127.062C55.6526 127.378 55.8086 127.61 56.1206 127.758C56.4366 127.906 56.8646 127.98 57.4046 127.98ZM57.0806 123.684C57.4966 123.684 57.8106 123.556 58.0226 123.3C58.2386 123.04 58.3466 122.702 58.3466 122.286C58.3466 121.878 58.2386 121.548 58.0226 121.296C57.8106 121.04 57.4966 120.912 57.0806 120.912C56.6646 120.912 56.3486 121.04 56.1326 121.296C55.9206 121.548 55.8146 121.878 55.8146 122.286C55.8146 122.702 55.9206 123.04 56.1326 123.3C56.3486 123.556 56.6646 123.684 57.0806 123.684Z" fill="white"/>
<path d="M60.9329 126V120.072H62.0369L62.1269 120.9C62.3669 120.612 62.6229 120.382 62.8949 120.21C63.1709 120.038 63.4689 119.952 63.7889 119.952C63.8849 119.952 63.9749 119.962 64.0589 119.982L63.9509 121.284C63.8829 121.268 63.8129 121.256 63.7409 121.248C63.6729 121.24 63.6009 121.236 63.5249 121.236C63.2369 121.236 62.9729 121.302 62.7329 121.434C62.4969 121.562 62.3289 121.708 62.2289 121.872V126H60.9329Z" fill="white"/>
<path d="M67.5271 126.12C66.8191 126.12 66.2271 125.978 65.7511 125.694C65.2751 125.406 64.9151 125.026 64.6711 124.554C64.4311 124.078 64.3111 123.558 64.3111 122.994C64.3111 122.446 64.4231 121.942 64.6471 121.482C64.8751 121.022 65.2051 120.654 65.6371 120.378C66.0731 120.098 66.5991 119.958 67.2151 119.958C67.7391 119.958 68.1931 120.064 68.5771 120.276C68.9611 120.488 69.2551 120.784 69.4591 121.164C69.6671 121.544 69.7711 121.988 69.7711 122.496C69.7711 122.6 69.7651 122.708 69.7531 122.82C69.7451 122.932 69.7291 123.05 69.7051 123.174H65.6071C65.6591 123.642 65.7831 124.014 65.9791 124.29C66.1751 124.562 66.4191 124.756 66.7111 124.872C67.0031 124.988 67.3191 125.046 67.6591 125.046C67.9631 125.046 68.2631 125.012 68.5591 124.944C68.8551 124.872 69.1331 124.77 69.3931 124.638L69.5071 125.664C69.2791 125.772 68.9991 125.876 68.6671 125.976C68.3351 126.072 67.9551 126.12 67.5271 126.12ZM65.6791 122.316H68.4871C68.4871 122.08 68.4431 121.866 68.3551 121.674C68.2671 121.478 68.1271 121.322 67.9351 121.206C67.7471 121.09 67.5031 121.032 67.2031 121.032C66.7631 121.032 66.4211 121.148 66.1771 121.38C65.9371 121.612 65.7711 121.924 65.6791 122.316Z" fill="white"/>
<path d="M73.6912 126.12C72.9832 126.12 72.3912 125.978 71.9152 125.694C71.4392 125.406 71.0792 125.026 70.8352 124.554C70.5952 124.078 70.4752 123.558 70.4752 122.994C70.4752 122.446 70.5872 121.942 70.8112 121.482C71.0392 121.022 71.3692 120.654 71.8012 120.378C72.2372 120.098 72.7632 119.958 73.3792 119.958C73.9032 119.958 74.3572 120.064 74.7412 120.276C75.1252 120.488 75.4192 120.784 75.6232 121.164C75.8312 121.544 75.9352 121.988 75.9352 122.496C75.9352 122.6 75.9292 122.708 75.9172 122.82C75.9092 122.932 75.8932 123.05 75.8692 123.174H71.7712C71.8232 123.642 71.9472 124.014 72.1432 124.29C72.3392 124.562 72.5832 124.756 72.8752 124.872C73.1672 124.988 73.4832 125.046 73.8232 125.046C74.1272 125.046 74.4272 125.012 74.7232 124.944C75.0192 124.872 75.2972 124.77 75.5572 124.638L75.6712 125.664C75.4432 125.772 75.1632 125.876 74.8312 125.976C74.4992 126.072 74.1192 126.12 73.6912 126.12ZM71.8432 122.316H74.6512C74.6512 122.08 74.6072 121.866 74.5192 121.674C74.4312 121.478 74.2912 121.322 74.0992 121.206C73.9112 121.09 73.6672 121.032 73.3672 121.032C72.9272 121.032 72.5852 121.148 72.3412 121.38C72.1012 121.612 71.9352 121.924 71.8432 122.316Z" fill="white"/>
<path d="M76.9993 126V120.072H78.0733L78.2233 121.194L77.8393 120.894C78.1633 120.558 78.5013 120.318 78.8533 120.174C79.2053 120.03 79.5733 119.958 79.9573 119.958C80.7773 119.958 81.3733 120.21 81.7453 120.714C82.1173 121.214 82.3033 121.88 82.3033 122.712V126H81.0493V122.766C81.0493 122.17 80.9433 121.732 80.7313 121.452C80.5193 121.172 80.1613 121.032 79.6573 121.032C79.2853 121.032 78.9573 121.118 78.6733 121.29C78.3933 121.458 78.1893 121.71 78.0613 122.046L78.2533 121.356V126H76.9993Z" fill="white"/>
<path d="M86.5232 126.12C85.8152 126.12 85.2232 125.978 84.7472 125.694C84.2712 125.406 83.9112 125.026 83.6672 124.554C83.4272 124.078 83.3072 123.558 83.3072 122.994C83.3072 122.446 83.4192 121.942 83.6432 121.482C83.8712 121.022 84.2012 120.654 84.6332 120.378C85.0692 120.098 85.5952 119.958 86.2112 119.958C86.7352 119.958 87.1892 120.064 87.5732 120.276C87.9572 120.488 88.2512 120.784 88.4552 121.164C88.6632 121.544 88.7672 121.988 88.7672 122.496C88.7672 122.6 88.7612 122.708 88.7492 122.82C88.7412 122.932 88.7252 123.05 88.7012 123.174H84.6032C84.6552 123.642 84.7792 124.014 84.9752 124.29C85.1712 124.562 85.4152 124.756 85.7072 124.872C85.9992 124.988 86.3152 125.046 86.6552 125.046C86.9592 125.046 87.2592 125.012 87.5552 124.944C87.8512 124.872 88.1292 124.77 88.3892 124.638L88.5032 125.664C88.2752 125.772 87.9952 125.876 87.6632 125.976C87.3312 126.072 86.9512 126.12 86.5232 126.12ZM84.6752 122.316H87.4832C87.4832 122.08 87.4392 121.866 87.3512 121.674C87.2632 121.478 87.1232 121.322 86.9312 121.206C86.7432 121.09 86.4992 121.032 86.1992 121.032C85.7592 121.032 85.4172 121.148 85.1732 121.38C84.9332 121.612 84.7672 121.924 84.6752 122.316Z" fill="white"/>
<path d="M89.8313 126V120.072H90.9353L91.0253 120.9C91.2653 120.612 91.5213 120.382 91.7933 120.21C92.0693 120.038 92.3673 119.952 92.6873 119.952C92.7833 119.952 92.8733 119.962 92.9573 119.982L92.8493 121.284C92.7813 121.268 92.7113 121.256 92.6393 121.248C92.5713 121.24 92.4993 121.236 92.4233 121.236C92.1353 121.236 91.8713 121.302 91.6313 121.434C91.3953 121.562 91.2273 121.708 91.1273 121.872V126H89.8313Z" fill="white"/>
<path d="M99.3878 126.12C98.9558 126.12 98.5578 126.032 98.1938 125.856C97.8298 125.68 97.5438 125.426 97.3358 125.094L97.6778 124.848L97.5278 126H96.3818V117H97.6358V121.152L97.3538 120.96C97.5818 120.66 97.8718 120.418 98.2238 120.234C98.5758 120.05 98.9638 119.958 99.3878 119.958C99.9518 119.958 100.432 120.102 100.828 120.39C101.228 120.674 101.532 121.05 101.74 121.518C101.952 121.986 102.058 122.494 102.058 123.042C102.058 123.606 101.946 124.122 101.722 124.59C101.498 125.054 101.186 125.426 100.786 125.706C100.386 125.982 99.9198 126.12 99.3878 126.12ZM99.2198 125.046C99.5438 125.046 99.8218 124.958 100.054 124.782C100.286 124.606 100.464 124.366 100.588 124.062C100.712 123.758 100.774 123.418 100.774 123.042C100.774 122.654 100.712 122.31 100.588 122.01C100.464 121.706 100.286 121.468 100.054 121.296C99.8218 121.12 99.5438 121.032 99.2198 121.032C98.8918 121.032 98.6038 121.11 98.3558 121.266C98.1118 121.422 97.9198 121.65 97.7798 121.95C97.6398 122.246 97.5698 122.61 97.5698 123.042C97.5698 123.482 97.6398 123.85 97.7798 124.146C97.9198 124.442 98.1118 124.666 98.3558 124.818C98.6038 124.97 98.8918 125.046 99.2198 125.046Z" fill="white"/>
<path d="M103.465 128.904L104.809 125.682L102.343 120.072H103.735L105.445 124.224L107.059 120.072H108.451L104.785 128.904H103.465Z" fill="white"/>
<path d="M112.149 126V117.6H115.023C115.799 117.6 116.393 117.772 116.805 118.116C117.221 118.456 117.429 118.964 117.429 119.64C117.429 120.12 117.323 120.532 117.111 120.876C116.899 121.22 116.581 121.456 116.157 121.584L116.259 121.35C116.879 121.466 117.351 121.712 117.675 122.088C117.999 122.464 118.161 122.97 118.161 123.606C118.161 124.35 117.921 124.936 117.441 125.364C116.961 125.788 116.301 126 115.461 126H112.149ZM113.457 124.824H115.311C115.755 124.824 116.109 124.722 116.373 124.518C116.641 124.31 116.775 123.976 116.775 123.516C116.775 123.016 116.637 122.67 116.361 122.478C116.089 122.282 115.739 122.184 115.311 122.184H113.457V124.824ZM113.457 121.008H114.843C115.235 121.008 115.543 120.93 115.767 120.774C115.995 120.614 116.109 120.32 116.109 119.892C116.109 119.46 115.995 119.166 115.767 119.01C115.543 118.85 115.235 118.77 114.843 118.77H113.457V121.008Z" fill="white"/>
<path d="M119.461 128.904L120.805 125.682L118.339 120.072H119.731L121.441 124.224L123.055 120.072H124.447L120.781 128.904H119.461Z" fill="white"/>
<path d="M125.222 126V120.072H126.326L126.416 120.9C126.656 120.612 126.912 120.382 127.184 120.21C127.46 120.038 127.758 119.952 128.078 119.952C128.174 119.952 128.264 119.962 128.348 119.982L128.24 121.284C128.172 121.268 128.102 121.256 128.03 121.248C127.962 121.24 127.89 121.236 127.814 121.236C127.526 121.236 127.262 121.302 127.022 121.434C126.786 121.562 126.618 121.708 126.518 121.872V126H125.222Z" fill="white"/>
<path d="M131.33 126.12C130.786 126.12 130.31 125.982 129.902 125.706C129.494 125.426 129.176 125.054 128.948 124.59C128.724 124.126 128.612 123.612 128.612 123.048C128.612 122.5 128.718 121.992 128.93 121.524C129.146 121.052 129.456 120.674 129.86 120.39C130.268 120.102 130.758 119.958 131.33 119.958C131.742 119.958 132.118 120.038 132.458 120.198C132.798 120.358 133.084 120.6 133.316 120.924L133.028 121.146V117H134.282V126H133.136L132.986 124.848L133.328 125.094C133.112 125.426 132.834 125.68 132.494 125.856C132.154 126.032 131.766 126.12 131.33 126.12ZM131.534 125.046C131.83 125.046 132.098 124.972 132.338 124.824C132.582 124.676 132.774 124.454 132.914 124.158C133.058 123.862 133.13 123.492 133.13 123.048C133.13 122.624 133.058 122.262 132.914 121.962C132.774 121.658 132.582 121.428 132.338 121.272C132.098 121.112 131.83 121.032 131.534 121.032C131.19 121.032 130.894 121.12 130.646 121.296C130.402 121.468 130.214 121.706 130.082 122.01C129.954 122.31 129.89 122.656 129.89 123.048C129.89 123.424 129.954 123.764 130.082 124.068C130.214 124.368 130.402 124.606 130.646 124.782C130.894 124.958 131.19 125.046 131.534 125.046Z" fill="white"/>
<path d="M137.384 126.12C136.916 126.12 136.516 126.068 136.184 125.964C135.852 125.86 135.578 125.75 135.362 125.634L135.494 124.494C135.698 124.634 135.956 124.77 136.268 124.902C136.584 125.03 136.94 125.094 137.336 125.094C137.68 125.094 137.942 125.038 138.122 124.926C138.306 124.81 138.398 124.64 138.398 124.416C138.398 124.232 138.344 124.084 138.236 123.972C138.128 123.856 137.986 123.76 137.81 123.684C137.634 123.608 137.448 123.538 137.252 123.474C136.944 123.374 136.652 123.258 136.376 123.126C136.104 122.994 135.882 122.818 135.71 122.598C135.542 122.374 135.458 122.078 135.458 121.71C135.458 121.39 135.538 121.096 135.698 120.828C135.858 120.56 136.1 120.348 136.424 120.192C136.752 120.032 137.168 119.952 137.672 119.952C138.056 119.952 138.382 119.994 138.65 120.078C138.922 120.158 139.164 120.254 139.376 120.366L139.244 121.476C139.032 121.312 138.802 121.176 138.554 121.068C138.31 120.956 138.024 120.9 137.696 120.9C137.392 120.9 137.15 120.96 136.97 121.08C136.79 121.196 136.7 121.374 136.7 121.614C136.7 121.87 136.806 122.056 137.018 122.172C137.23 122.288 137.56 122.422 138.008 122.574C138.212 122.642 138.412 122.724 138.608 122.82C138.804 122.912 138.982 123.024 139.142 123.156C139.306 123.288 139.436 123.452 139.532 123.648C139.628 123.844 139.676 124.078 139.676 124.35C139.676 124.662 139.6 124.952 139.448 125.22C139.3 125.488 139.058 125.706 138.722 125.874C138.39 126.038 137.944 126.12 137.384 126.12Z" fill="white"/>
<g filter="url(#filter0_d_475_4976)">
<rect x="139" y="164" width="9" height="51" fill="#693F00"/>
</g>
<g filter="url(#filter1_d_475_4976)">
<rect x="123" y="194" width="9" height="22" fill="#693F00"/>
</g>
<g filter="url(#filter2_d_475_4976)">
<ellipse cx="143" cy="175" rx="13" ry="21" fill="#00FF49"/>
</g>
<g filter="url(#filter3_d_475_4976)">
<ellipse cx="127" cy="185" rx="13" ry="21" fill="#00FF49"/>
</g>
<defs>
<filter id="filter0_d_475_4976" x="137" y="160" width="17" height="59" filterUnits="userSpaceOnUse" color-interpolation-filters="sRGB">
<feFlood flood-opacity="0" result="BackgroundImageFix"/>
<feColorMatrix in="SourceAlpha" type="matrix" values="0 0 0 0 0 0 0 0 0 0 0 0 0 0 0 0 0 0 127 0" result="hardAlpha"/>
<feOffset dx="2"/>
<feGaussianBlur stdDeviation="2"/>
<feComposite in2="hardAlpha" operator="out"/>
<feColorMatrix type="matrix" values="0 0 0 0 0 0 0 0 0 0 0 0 0 0 0 0 0 0 0.25 0"/>
<feBlend mode="normal" in2="BackgroundImageFix" result="effect1_dropShadow_475_4976"/>
<feBlend mode="normal" in="SourceGraphic" in2="effect1_dropShadow_475_4976" result="shape"/>
</filter>
<filter id="filter1_d_475_4976" x="122" y="190" width="17" height="30" filterUnits="userSpaceOnUse" color-interpolation-filters="sRGB">
<feFlood flood-opacity="0" result="BackgroundImageFix"/>
<feColorMatrix in="SourceAlpha" type="matrix" values="0 0 0 0 0 0 0 0 0 0 0 0 0 0 0 0 0 0 127 0" result="hardAlpha"/>
<feOffset dx="3"/>
<feGaussianBlur stdDeviation="2"/>
<feComposite in2="hardAlpha" operator="out"/>
<feColorMatrix type="matrix" values="0 0 0 0 0 0 0 0 0 0 0 0 0 0 0 0 0 0 0.25 0"/>
<feBlend mode="normal" in2="BackgroundImageFix" result="effect1_dropShadow_475_4976"/>
<feBlend mode="normal" in="SourceGraphic" in2="effect1_dropShadow_475_4976" result="shape"/>
</filter>
<filter id="filter2_d_475_4976" x="128" y="150" width="34" height="50" filterUnits="userSpaceOnUse" color-interpolation-filters="sRGB">
<feFlood flood-opacity="0" result="BackgroundImageFix"/>
<feColorMatrix in="SourceAlpha" type="matrix" values="0 0 0 0 0 0 0 0 0 0 0 0 0 0 0 0 0 0 127 0" result="hardAlpha"/>
<feOffset dx="2"/>
<feGaussianBlur stdDeviation="2"/>
<feComposite in2="hardAlpha" operator="out"/>
<feColorMatrix type="matrix" values="0 0 0 0 0 0 0 0 0 0 0 0 0 0 0 0 0 0 0.25 0"/>
<feBlend mode="normal" in2="BackgroundImageFix" result="effect1_dropShadow_475_4976"/>
<feBlend mode="normal" in="SourceGraphic" in2="effect1_dropShadow_475_4976" result="shape"/>
</filter>
<filter id="filter3_d_475_4976" x="113" y="160" width="34" height="50" filterUnits="userSpaceOnUse" color-interpolation-filters="sRGB">
<feFlood flood-opacity="0" result="BackgroundImageFix"/>
<feColorMatrix in="SourceAlpha" type="matrix" values="0 0 0 0 0 0 0 0 0 0 0 0 0 0 0 0 0 0 127 0" result="hardAlpha"/>
<feOffset dx="3"/>
<feGaussianBlur stdDeviation="2"/>
<feComposite in2="hardAlpha" operator="out"/>
<feColorMatrix type="matrix" values="0 0 0 0 0 0 0 0 0 0 0 0 0 0 0 0 0 0 0.25 0"/>
<feBlend mode="normal" in2="BackgroundImageFix" result="effect1_dropShadow_475_4976"/>
<feBlend mode="normal" in="SourceGraphic" in2="effect1_dropShadow_475_4976" result="shape"/>
</filter>
<linearGradient id="paint0_linear_475_4976" x1="81.5" y1="0" x2="81.5" y2="215.981" gradientUnits="userSpaceOnUse">
<stop stop-color="#6DB935"/>
<stop offset="1" stop-color="#4DAA09"/>
</linearGradient>
</defs>
</svg>
