<svg width="536" height="451" viewBox="0 0 536 451" fill="none" xmlns="http://www.w3.org/2000/svg">
<rect x="419.967" y="160.891" width="94.9777" height="26.8235" transform="rotate(45 419.967 160.891)" fill="#5AB01B"/>
<rect x="455" y="250.798" width="94.9777" height="26.8235" transform="rotate(-90 455 250.798)" fill="#5AB01B"/>
<rect x="461.161" y="242.427" width="94.9777" height="26.8235" transform="rotate(-67 461.161 242.427)" fill="#5AB01B"/>
<rect x="428.967" y="5.89087" width="94.9777" height="26.8235" transform="rotate(45 428.967 5.89087)" fill="#5AB01B"/>
<rect x="464" y="95.7979" width="94.9777" height="26.8235" transform="rotate(-90 464 95.7979)" fill="#5AB01B"/>
<rect x="470.161" y="87.4275" width="94.9777" height="26.8235" transform="rotate(-67 470.161 87.4275)" fill="#5AB01B"/>
<rect x="291.967" y="5.89093" width="94.9777" height="26.8235" transform="rotate(45 291.967 5.89093)" fill="#5AB01B"/>
<rect x="327" y="95.7979" width="94.9777" height="26.8235" transform="rotate(-90 327 95.7979)" fill="#5AB01B"/>
<rect x="333.161" y="87.4275" width="94.9777" height="26.8235" transform="rotate(-67 333.161 87.4275)" fill="#5AB01B"/>
<rect x="157.967" y="6.89093" width="94.9777" height="26.8235" transform="rotate(45 157.967 6.89093)" fill="#5AB01B"/>
<rect x="193" y="96.7979" width="94.9777" height="26.8235" transform="rotate(-90 193 96.7979)" fill="#5AB01B"/>
<rect x="199.161" y="88.4275" width="94.9777" height="26.8235" transform="rotate(-67 199.161 88.4275)" fill="#5AB01B"/>
<rect x="24.9668" y="5.89093" width="94.9777" height="26.8235" transform="rotate(45 24.9668 5.89093)" fill="#5AB01B"/>
<rect x="60" y="95.7979" width="94.9777" height="26.8235" transform="rotate(-90 60 95.7979)" fill="#5AB01B"/>
<rect x="66.1611" y="87.4275" width="94.9777" height="26.8235" transform="rotate(-67 66.1611 87.4275)" fill="#5AB01B"/>
<g filter="url(#filter0_d_325_3749)">
<path d="M414.509 49.0007H527.509L505.104 130.001H436.509L414.509 49.0007Z" fill="#8DB6B6"/>
</g>
<g filter="url(#filter1_d_325_3749)">
<path d="M281 49.0007H394L371.595 130.001H303L281 49.0007Z" fill="#CCA8B4"/>
</g>
<g filter="url(#filter2_d_325_3749)">
<path d="M147.509 49H260.509L238.104 130H169.509L147.509 49Z" fill="#E32548"/>
</g>
<g filter="url(#filter3_d_325_3749)">
<path d="M14 49H127L104.595 130H36L14 49Z" fill="#861B34"/>
</g>
<rect x="422.476" y="315.071" width="94.9777" height="26.8235" transform="rotate(45 422.476 315.071)" fill="#7E9F2C"/>
<rect x="458" y="403.978" width="94.9777" height="26.8235" transform="rotate(-90 458 403.978)" fill="#7E9F2C"/>
<rect x="464.773" y="397.343" width="94.9777" height="26.8235" transform="rotate(-67 464.773 397.343)" fill="#7E9F2C"/>
<g filter="url(#filter4_d_325_3749)">
<path d="M414.509 365H527.509L505.104 446H436.509L414.509 365Z" fill="#FFDF5C"/>
<path d="M414.509 363.5H412.547L413.061 365.394L435.061 446.394L435.362 447.5H436.509H505.104H506.245L506.549 446.4L528.954 365.4L529.48 363.5H527.509H414.509Z" stroke="#333333" stroke-width="3"/>
</g>
<rect x="288.967" y="315.071" width="94.9777" height="26.8235" transform="rotate(45 288.967 315.071)" fill="#5AB01B"/>
<rect x="324" y="404.978" width="94.9777" height="26.8235" transform="rotate(-90 324 404.978)" fill="#5AB01B"/>
<rect x="330.161" y="396.607" width="94.9777" height="26.8235" transform="rotate(-67 330.161 396.607)" fill="#5AB01B"/>
<rect x="157.967" y="315.891" width="94.9777" height="26.8235" transform="rotate(45 157.967 315.891)" fill="#5AB01B"/>
<rect x="193" y="405.798" width="94.9777" height="26.8235" transform="rotate(-90 193 405.798)" fill="#5AB01B"/>
<rect x="199.161" y="397.427" width="94.9777" height="26.8235" transform="rotate(-67 199.161 397.427)" fill="#5AB01B"/>
<rect x="27.9668" y="315.891" width="94.9777" height="26.8235" transform="rotate(45 27.9668 315.891)" fill="#5AB01B"/>
<rect x="63" y="405.798" width="94.9777" height="26.8235" transform="rotate(-90 63 405.798)" fill="#5AB01B"/>
<rect x="69.1611" y="397.427" width="94.9777" height="26.8235" transform="rotate(-67 69.1611 397.427)" fill="#5AB01B"/>
<rect x="18.9668" y="162.891" width="94.9777" height="26.8235" transform="rotate(45 18.9668 162.891)" fill="#5AB01B"/>
<rect x="54" y="252.798" width="94.9777" height="26.8235" transform="rotate(-90 54 252.798)" fill="#5AB01B"/>
<rect x="60.1611" y="244.427" width="94.9777" height="26.8235" transform="rotate(-67 60.1611 244.427)" fill="#5AB01B"/>
<rect x="149.967" y="160.891" width="94.9777" height="26.8235" transform="rotate(45 149.967 160.891)" fill="#5AB01B"/>
<rect x="185" y="250.798" width="94.9777" height="26.8235" transform="rotate(-90 185 250.798)" fill="#5AB01B"/>
<rect x="191.161" y="242.427" width="94.9777" height="26.8235" transform="rotate(-67 191.161 242.427)" fill="#5AB01B"/>
<rect x="285.967" y="160.891" width="94.9777" height="26.8235" transform="rotate(45 285.967 160.891)" fill="#5AB01B"/>
<rect x="321" y="250.798" width="94.9777" height="26.8235" transform="rotate(-90 321 250.798)" fill="#5AB01B"/>
<rect x="327.161" y="242.427" width="94.9777" height="26.8235" transform="rotate(-67 327.161 242.427)" fill="#5AB01B"/>
<g filter="url(#filter5_d_325_3749)">
<path d="M281 365H394L371.595 446H303L281 365Z" fill="#CCA8B4"/>
</g>
<g filter="url(#filter6_d_325_3749)">
<path d="M147.509 365H260.509L238.104 446H169.509L147.509 365Z" fill="#861B34"/>
</g>
<g filter="url(#filter7_d_325_3749)">
<path d="M14 365H127L104.595 446H36L14 365Z" fill="#E32548"/>
</g>
<g filter="url(#filter8_d_325_3749)">
<path d="M409.509 208.001H522.509L500.104 289.001H431.509L409.509 208.001Z" fill="#861B34"/>
</g>
<g filter="url(#filter9_d_325_3749)">
<path d="M276 208.001H389L366.595 289.001H298L276 208.001Z" fill="#E32548"/>
</g>
<g filter="url(#filter10_d_325_3749)">
<path d="M142.509 208H255.509L233.104 289H164.509L142.509 208Z" fill="#8DB6B6"/>
</g>
<g filter="url(#filter11_d_325_3749)">
<path d="M9 208H122L99.5948 289H31L9 208Z" fill="#CCA8B4"/>
</g>
<defs>
<filter id="filter0_d_325_3749" x="410.509" y="43.0007" width="121" height="89" filterUnits="userSpaceOnUse" color-interpolation-filters="sRGB">
<feFlood flood-opacity="0" result="BackgroundImageFix"/>
<feColorMatrix in="SourceAlpha" type="matrix" values="0 0 0 0 0 0 0 0 0 0 0 0 0 0 0 0 0 0 127 0" result="hardAlpha"/>
<feOffset dy="-2"/>
<feGaussianBlur stdDeviation="2"/>
<feComposite in2="hardAlpha" operator="out"/>
<feColorMatrix type="matrix" values="0 0 0 0 0 0 0 0 0 0 0 0 0 0 0 0 0 0 0.25 0"/>
<feBlend mode="normal" in2="BackgroundImageFix" result="effect1_dropShadow_325_3749"/>
<feBlend mode="normal" in="SourceGraphic" in2="effect1_dropShadow_325_3749" result="shape"/>
</filter>
<filter id="filter1_d_325_3749" x="277" y="43.0007" width="121" height="89" filterUnits="userSpaceOnUse" color-interpolation-filters="sRGB">
<feFlood flood-opacity="0" result="BackgroundImageFix"/>
<feColorMatrix in="SourceAlpha" type="matrix" values="0 0 0 0 0 0 0 0 0 0 0 0 0 0 0 0 0 0 127 0" result="hardAlpha"/>
<feOffset dy="-2"/>
<feGaussianBlur stdDeviation="2"/>
<feComposite in2="hardAlpha" operator="out"/>
<feColorMatrix type="matrix" values="0 0 0 0 0 0 0 0 0 0 0 0 0 0 0 0 0 0 0.25 0"/>
<feBlend mode="normal" in2="BackgroundImageFix" result="effect1_dropShadow_325_3749"/>
<feBlend mode="normal" in="SourceGraphic" in2="effect1_dropShadow_325_3749" result="shape"/>
</filter>
<filter id="filter2_d_325_3749" x="143.509" y="43" width="121" height="89" filterUnits="userSpaceOnUse" color-interpolation-filters="sRGB">
<feFlood flood-opacity="0" result="BackgroundImageFix"/>
<feColorMatrix in="SourceAlpha" type="matrix" values="0 0 0 0 0 0 0 0 0 0 0 0 0 0 0 0 0 0 127 0" result="hardAlpha"/>
<feOffset dy="-2"/>
<feGaussianBlur stdDeviation="2"/>
<feComposite in2="hardAlpha" operator="out"/>
<feColorMatrix type="matrix" values="0 0 0 0 0 0 0 0 0 0 0 0 0 0 0 0 0 0 0.25 0"/>
<feBlend mode="normal" in2="BackgroundImageFix" result="effect1_dropShadow_325_3749"/>
<feBlend mode="normal" in="SourceGraphic" in2="effect1_dropShadow_325_3749" result="shape"/>
</filter>
<filter id="filter3_d_325_3749" x="10" y="43" width="121" height="89" filterUnits="userSpaceOnUse" color-interpolation-filters="sRGB">
<feFlood flood-opacity="0" result="BackgroundImageFix"/>
<feColorMatrix in="SourceAlpha" type="matrix" values="0 0 0 0 0 0 0 0 0 0 0 0 0 0 0 0 0 0 127 0" result="hardAlpha"/>
<feOffset dy="-2"/>
<feGaussianBlur stdDeviation="2"/>
<feComposite in2="hardAlpha" operator="out"/>
<feColorMatrix type="matrix" values="0 0 0 0 0 0 0 0 0 0 0 0 0 0 0 0 0 0 0.25 0"/>
<feBlend mode="normal" in2="BackgroundImageFix" result="effect1_dropShadow_325_3749"/>
<feBlend mode="normal" in="SourceGraphic" in2="effect1_dropShadow_325_3749" result="shape"/>
</filter>
<filter id="filter4_d_325_3749" x="406.585" y="356" width="128.866" height="95" filterUnits="userSpaceOnUse" color-interpolation-filters="sRGB">
<feFlood flood-opacity="0" result="BackgroundImageFix"/>
<feColorMatrix in="SourceAlpha" type="matrix" values="0 0 0 0 0 0 0 0 0 0 0 0 0 0 0 0 0 0 127 0" result="hardAlpha"/>
<feOffset dy="-2"/>
<feGaussianBlur stdDeviation="2"/>
<feComposite in2="hardAlpha" operator="out"/>
<feColorMatrix type="matrix" values="0 0 0 0 0 0 0 0 0 0 0 0 0 0 0 0 0 0 0.25 0"/>
<feBlend mode="normal" in2="BackgroundImageFix" result="effect1_dropShadow_325_3749"/>
<feBlend mode="normal" in="SourceGraphic" in2="effect1_dropShadow_325_3749" result="shape"/>
</filter>
<filter id="filter5_d_325_3749" x="277" y="359" width="121" height="89" filterUnits="userSpaceOnUse" color-interpolation-filters="sRGB">
<feFlood flood-opacity="0" result="BackgroundImageFix"/>
<feColorMatrix in="SourceAlpha" type="matrix" values="0 0 0 0 0 0 0 0 0 0 0 0 0 0 0 0 0 0 127 0" result="hardAlpha"/>
<feOffset dy="-2"/>
<feGaussianBlur stdDeviation="2"/>
<feComposite in2="hardAlpha" operator="out"/>
<feColorMatrix type="matrix" values="0 0 0 0 0 0 0 0 0 0 0 0 0 0 0 0 0 0 0.25 0"/>
<feBlend mode="normal" in2="BackgroundImageFix" result="effect1_dropShadow_325_3749"/>
<feBlend mode="normal" in="SourceGraphic" in2="effect1_dropShadow_325_3749" result="shape"/>
</filter>
<filter id="filter6_d_325_3749" x="143.509" y="359" width="121" height="89" filterUnits="userSpaceOnUse" color-interpolation-filters="sRGB">
<feFlood flood-opacity="0" result="BackgroundImageFix"/>
<feColorMatrix in="SourceAlpha" type="matrix" values="0 0 0 0 0 0 0 0 0 0 0 0 0 0 0 0 0 0 127 0" result="hardAlpha"/>
<feOffset dy="-2"/>
<feGaussianBlur stdDeviation="2"/>
<feComposite in2="hardAlpha" operator="out"/>
<feColorMatrix type="matrix" values="0 0 0 0 0 0 0 0 0 0 0 0 0 0 0 0 0 0 0.25 0"/>
<feBlend mode="normal" in2="BackgroundImageFix" result="effect1_dropShadow_325_3749"/>
<feBlend mode="normal" in="SourceGraphic" in2="effect1_dropShadow_325_3749" result="shape"/>
</filter>
<filter id="filter7_d_325_3749" x="10" y="359" width="121" height="89" filterUnits="userSpaceOnUse" color-interpolation-filters="sRGB">
<feFlood flood-opacity="0" result="BackgroundImageFix"/>
<feColorMatrix in="SourceAlpha" type="matrix" values="0 0 0 0 0 0 0 0 0 0 0 0 0 0 0 0 0 0 127 0" result="hardAlpha"/>
<feOffset dy="-2"/>
<feGaussianBlur stdDeviation="2"/>
<feComposite in2="hardAlpha" operator="out"/>
<feColorMatrix type="matrix" values="0 0 0 0 0 0 0 0 0 0 0 0 0 0 0 0 0 0 0.25 0"/>
<feBlend mode="normal" in2="BackgroundImageFix" result="effect1_dropShadow_325_3749"/>
<feBlend mode="normal" in="SourceGraphic" in2="effect1_dropShadow_325_3749" result="shape"/>
</filter>
<filter id="filter8_d_325_3749" x="405.509" y="202.001" width="121" height="89" filterUnits="userSpaceOnUse" color-interpolation-filters="sRGB">
<feFlood flood-opacity="0" result="BackgroundImageFix"/>
<feColorMatrix in="SourceAlpha" type="matrix" values="0 0 0 0 0 0 0 0 0 0 0 0 0 0 0 0 0 0 127 0" result="hardAlpha"/>
<feOffset dy="-2"/>
<feGaussianBlur stdDeviation="2"/>
<feComposite in2="hardAlpha" operator="out"/>
<feColorMatrix type="matrix" values="0 0 0 0 0 0 0 0 0 0 0 0 0 0 0 0 0 0 0.25 0"/>
<feBlend mode="normal" in2="BackgroundImageFix" result="effect1_dropShadow_325_3749"/>
<feBlend mode="normal" in="SourceGraphic" in2="effect1_dropShadow_325_3749" result="shape"/>
</filter>
<filter id="filter9_d_325_3749" x="272" y="202.001" width="121" height="89" filterUnits="userSpaceOnUse" color-interpolation-filters="sRGB">
<feFlood flood-opacity="0" result="BackgroundImageFix"/>
<feColorMatrix in="SourceAlpha" type="matrix" values="0 0 0 0 0 0 0 0 0 0 0 0 0 0 0 0 0 0 127 0" result="hardAlpha"/>
<feOffset dy="-2"/>
<feGaussianBlur stdDeviation="2"/>
<feComposite in2="hardAlpha" operator="out"/>
<feColorMatrix type="matrix" values="0 0 0 0 0 0 0 0 0 0 0 0 0 0 0 0 0 0 0.25 0"/>
<feBlend mode="normal" in2="BackgroundImageFix" result="effect1_dropShadow_325_3749"/>
<feBlend mode="normal" in="SourceGraphic" in2="effect1_dropShadow_325_3749" result="shape"/>
</filter>
<filter id="filter10_d_325_3749" x="138.509" y="202" width="121" height="89" filterUnits="userSpaceOnUse" color-interpolation-filters="sRGB">
<feFlood flood-opacity="0" result="BackgroundImageFix"/>
<feColorMatrix in="SourceAlpha" type="matrix" values="0 0 0 0 0 0 0 0 0 0 0 0 0 0 0 0 0 0 127 0" result="hardAlpha"/>
<feOffset dy="-2"/>
<feGaussianBlur stdDeviation="2"/>
<feComposite in2="hardAlpha" operator="out"/>
<feColorMatrix type="matrix" values="0 0 0 0 0 0 0 0 0 0 0 0 0 0 0 0 0 0 0.25 0"/>
<feBlend mode="normal" in2="BackgroundImageFix" result="effect1_dropShadow_325_3749"/>
<feBlend mode="normal" in="SourceGraphic" in2="effect1_dropShadow_325_3749" result="shape"/>
</filter>
<filter id="filter11_d_325_3749" x="5" y="202" width="121" height="89" filterUnits="userSpaceOnUse" color-interpolation-filters="sRGB">
<feFlood flood-opacity="0" result="BackgroundImageFix"/>
<feColorMatrix in="SourceAlpha" type="matrix" values="0 0 0 0 0 0 0 0 0 0 0 0 0 0 0 0 0 0 127 0" result="hardAlpha"/>
<feOffset dy="-2"/>
<feGaussianBlur stdDeviation="2"/>
<feComposite in2="hardAlpha" operator="out"/>
<feColorMatrix type="matrix" values="0 0 0 0 0 0 0 0 0 0 0 0 0 0 0 0 0 0 0.25 0"/>
<feBlend mode="normal" in2="BackgroundImageFix" result="effect1_dropShadow_325_3749"/>
<feBlend mode="normal" in="SourceGraphic" in2="effect1_dropShadow_325_3749" result="shape"/>
</filter>
</defs>
</svg>
