<svg width="11" height="18" viewBox="0 0 11 18" fill="none" xmlns="http://www.w3.org/2000/svg">
<path d="M6.11328 15.0486C6.80112 4.67011 1.99908 2 1.99908 2" stroke="#017B3E" stroke-linecap="round"/>
<path d="M6.14648 14.5659C7.05544 6.02269 9.72148 3.22748 9.72148 3.22748" stroke="#017B3E" stroke-linecap="round"/>
<circle cx="3" cy="3" r="3" fill="#00E217"/>
<circle cx="9" cy="4" r="2" fill="#00E217"/>
<path d="M2 16C2 15.7374 2.05173 15.4773 2.15224 15.2346C2.25275 14.992 2.40007 14.7715 2.58579 14.5858C2.7715 14.4001 2.99198 14.2528 3.23463 14.1522C3.47728 14.0517 3.73736 14 4 14C4.26264 14 4.52272 14.0517 4.76537 14.1522C5.00802 14.2528 5.2285 14.4001 5.41421 14.5858C5.59993 14.7715 5.74725 14.992 5.84776 15.2346C5.94827 15.4773 6 15.7374 6 16L4 16H2Z" fill="#AC6700"/>
<path d="M3 15C3 14.7374 3.05173 14.4773 3.15224 14.2346C3.25275 13.992 3.40007 13.7715 3.58579 13.5858C3.7715 13.4001 3.99198 13.2528 4.23463 13.1522C4.47728 13.0517 4.73736 13 5 13C5.26264 13 5.52272 13.0517 5.76537 13.1522C6.00802 13.2528 6.2285 13.4001 6.41421 13.5858C6.59993 13.7715 6.74725 13.992 6.84776 14.2346C6.94827 14.4773 7 14.7374 7 15L5 15H3Z" fill="#AC6700"/>
<path d="M5 16C5 15.7374 5.05173 15.4773 5.15224 15.2346C5.25275 14.992 5.40007 14.7715 5.58579 14.5858C5.7715 14.4001 5.99198 14.2528 6.23463 14.1522C6.47728 14.0517 6.73736 14 7 14C7.26264 14 7.52272 14.0517 7.76537 14.1522C8.00802 14.2528 8.2285 14.4001 8.41421 14.5858C8.59993 14.7715 8.74725 14.992 8.84776 15.2346C8.94827 15.4773 9 15.7374 9 16L7 16H5Z" fill="#AC6700"/>
</svg>
