<svg
              width="199"
              height="199"
              viewBox="0 0 199 199"
              fill="none"
              xmlns="http://www.w3.org/2000/svg"
            >
              <path
                d="M191.998 99.4982C195.071 95.9193 197.225 91.6446 198.272 87.0449C199.32 82.4452 199.229 77.6595 198.008 73.1029C196.787 68.5462 194.472 64.3563 191.265 60.8967C188.058 57.437 184.056 54.812 179.605 53.2494C180.477 48.6131 180.204 43.8341 178.811 39.3269C177.418 34.8196 174.946 30.7204 171.61 27.3848C168.274 24.0492 164.175 21.5779 159.667 20.1854C155.16 18.7929 150.38 18.5212 145.744 19.394C144.183 14.9419 141.558 10.9381 138.099 7.73044C134.639 4.52274 130.448 2.20801 125.891 0.987212C121.334 -0.233586 116.547 -0.323547 111.947 0.725139C107.347 1.77382 103.073 3.92946 99.4947 7.00489C95.9157 3.93158 91.641 1.77788 87.0412 0.730646C82.4415 -0.316591 77.6556 -0.225743 73.0989 0.995306C68.5422 2.21635 64.3523 4.53073 60.8925 7.73765C57.4328 10.9446 54.8078 14.9472 53.2452 19.3983C48.6091 18.527 43.8305 18.7998 39.3238 20.1933C34.8171 21.5867 30.7184 24.0586 27.3833 27.3945C24.0482 30.7305 21.5773 34.8297 20.185 39.3367C18.7927 43.8437 18.521 48.6223 19.3935 53.258C14.9424 54.8206 10.9397 57.4456 7.7327 60.9053C4.52573 64.365 2.21131 68.5549 0.990241 73.1115C-0.230826 77.6681 -0.321689 82.4539 0.725565 87.0535C1.77282 91.6532 3.92659 95.9279 6.99995 99.5068C3.92565 103.086 1.77122 107.361 0.72367 111.961C-0.323881 116.561 -0.23294 121.347 0.988662 125.904C2.21026 130.461 4.52558 134.651 7.73365 138.111C10.9417 141.57 14.9457 144.194 19.3978 145.756C18.5246 150.392 18.7959 155.17 20.1884 159.678C21.5809 164.185 24.0524 168.284 27.3884 171.62C30.7243 174.955 34.824 177.426 39.3314 178.818C43.8389 180.21 48.618 180.481 53.2538 179.607C54.8164 184.058 57.4414 188.061 60.9011 191.267C64.3609 194.474 68.5508 196.789 73.1075 198.01C77.6642 199.231 82.45 199.322 87.0498 198.274C91.6496 197.227 95.9244 195.073 99.5033 192C103.082 195.074 107.357 197.229 111.958 198.276C116.558 199.324 121.344 199.233 125.901 198.011C130.458 196.79 134.648 194.474 138.108 191.266C141.567 188.058 144.192 184.055 145.753 179.602C150.389 180.475 155.168 180.204 159.675 178.811C164.183 177.419 168.282 174.948 171.618 171.612C174.954 168.276 177.425 164.177 178.818 159.669C180.21 155.162 180.482 150.383 179.609 145.747C184.06 144.185 188.063 141.56 191.27 138.1C194.478 134.64 196.792 130.45 198.013 125.893C199.233 121.336 199.324 116.55 198.275 111.951C197.227 107.351 195.073 103.076 191.998 99.4982Z"
                fill="url(#paint0_linear_164_1822)"
              />
              <defs>
                <linearGradient
                  id="paint0_linear_164_1822"
                  x1="99.5"
                  y1="0"
                  x2="99.5"
                  y2="199"
                  gradientUnits="userSpaceOnUse"
                >
                  <stop stop-color="#6DB935" />
                  <stop offset="1" stop-color="#4DAA09" />
                </linearGradient>
              </defs>
              <svg
                width="94"
                height="72"
                x="50"
                y="60"
                viewBox="0 0 94 72"
                fill="none"
                xmlns="http://www.w3.org/2000/svg"
              >
                <path
                  d="M29.4503 70.3672L1.64781 42.94C0.592662 41.8968 0 40.4829 0 39.0087C0 37.5345 0.592662 36.1206 1.64781 35.0774L5.02558 31.7389C6.08243 30.6973 7.51478 30.1123 9.00818 30.1123C10.5016 30.1123 11.934 30.6973 12.9908 31.7389L33.201 51.6758L80.7974 1.74792C81.8216 0.675232 83.2351 0.0475274 84.7276 0.00258938C86.2202 -0.0423487 87.6698 0.499153 88.7583 1.50823L92.2271 4.73973C93.3151 5.75085 93.9518 7.14706 93.9974 8.62143C94.0429 10.0958 93.4935 11.5277 92.4699 12.6024L37.55 70.243C37.0329 70.7871 36.4103 71.2229 35.7191 71.5246C35.028 71.8263 34.2824 71.9877 33.5268 71.9993C32.7712 72.0109 32.0209 71.8724 31.3206 71.592C30.6203 71.3116 29.9843 70.8951 29.4503 70.3672Z"
                  fill="white"
                />
              </svg>
            </svg>