<svg width="33" height="33" viewBox="0 0 33 33" fill="none" xmlns="http://www.w3.org/2000/svg">
<path fill-rule="evenodd" clip-rule="evenodd" d="M17.2556 18.8787H19.6108C20.1689 18.8787 20.6318 18.425 20.6318 17.8612C20.6318 17.2838 20.1689 16.83 19.6108 16.83H17.2556V14.4513C17.2556 13.8875 16.8063 13.4338 16.2481 13.4338C15.69 13.4338 15.2271 13.8875 15.2271 14.4513V16.83H12.8855C12.3274 16.83 11.8645 17.2838 11.8645 17.8612C11.8645 18.425 12.3274 18.8787 12.8855 18.8787H15.2271V21.2575C15.2271 21.8213 15.69 22.275 16.2481 22.275C16.8063 22.275 17.2556 21.8213 17.2556 21.2575V18.8787ZM26.5898 12.4102C26.9098 12.4065 27.2583 12.4025 27.5749 12.4025C27.9152 12.4025 28.1875 12.6775 28.1875 13.0212V24.0763C28.1875 27.4862 25.4511 30.25 22.0613 30.25H11.2382C7.69864 30.25 4.8125 27.3487 4.8125 23.7738V8.95125C4.8125 5.54125 7.5625 2.75 10.9524 2.75H18.2222C18.5761 2.75 18.8484 3.03875 18.8484 3.3825V7.81C18.8484 10.3263 20.9041 12.3888 23.3954 12.4025C23.9773 12.4025 24.4904 12.4068 24.9393 12.4107C25.2886 12.4136 25.5991 12.4163 25.8731 12.4163C26.0669 12.4163 26.3181 12.4134 26.5898 12.4102ZM26.9637 10.4035C25.8447 10.4077 24.5255 10.4035 23.5766 10.3939C22.0709 10.3939 20.8307 9.14128 20.8307 7.62053V3.99603C20.8307 3.4034 21.5427 3.10915 21.9498 3.53678C22.6867 4.31072 23.6996 5.37467 24.7077 6.43367C25.7127 7.48939 26.713 8.5402 27.4307 9.2939C27.8282 9.71053 27.5369 10.4022 26.9637 10.4035Z" fill="black"/>
</svg>
