<svg width="74" height="54" viewBox="0 0 74 54" fill="none" xmlns="http://www.w3.org/2000/svg">
<path d="M18.6663 53.6667C13.5997 53.6667 9.27745 51.9222 5.69967 48.4333C2.1219 44.9222 0.333008 40.6445 0.333008 35.6C0.333008 31.2667 1.63301 27.4 4.23301 24C6.85523 20.6 10.2775 18.4333 14.4997 17.5C15.8997 12.3889 18.6775 8.25557 22.833 5.10001C27.0108 1.92223 31.733 0.333344 36.9997 0.333344C43.5108 0.333344 49.0219 2.60001 53.533 7.13334C58.0663 11.6445 60.333 17.1556 60.333 23.6667C64.1775 24.1111 67.3552 25.7778 69.8663 28.6667C72.3997 31.5111 73.6663 34.8445 73.6663 38.6667C73.6663 42.8445 72.2108 46.3889 69.2997 49.3C66.3886 52.2111 62.8441 53.6667 58.6663 53.6667H40.333C38.5108 53.6667 36.9441 53.0111 35.633 51.7C34.3219 50.4111 33.6663 48.8445 33.6663 47V29.8333L28.333 35L23.6663 30.3333L36.9997 17L50.333 30.3333L45.6663 35L40.333 29.8333V47H58.6663C60.9997 47 62.9663 46.1889 64.5663 44.5667C66.1886 42.9667 66.9997 41 66.9997 38.6667C66.9997 36.3333 66.1886 34.3667 64.5663 32.7667C62.9663 31.1445 60.9997 30.3333 58.6663 30.3333H53.6663V23.6667C53.6663 19.0667 52.0441 15.1333 48.7997 11.8667C45.5552 8.62223 41.6219 7.00001 36.9997 7.00001C32.3997 7.00001 28.4663 8.62223 25.1997 11.8667C21.9552 15.1333 20.333 19.0667 20.333 23.6667H18.6663C15.4441 23.6667 12.6997 24.8111 10.433 27.1C8.14412 29.3667 6.99967 32.1111 6.99967 35.3333C6.99967 38.5556 8.14412 41.3333 10.433 43.6667C12.6997 45.8889 15.4441 47 18.6663 47H26.9997V53.6667" fill="#52AC0F"/>
</svg>